<svg width="624" height="624" xmlns="http://www.w3.org/2000/svg" xmlns:xlink="http://www.w3.org/1999/xlink" xml:space="preserve" overflow="hidden"><g><path d="M342.263 512.782C342.263 512.638 341.885 512.386 341.417 512.206 339.741 511.594 338.498 510.927 337.724 510.206 337.49 510.008 337.093 509.72 336.823 509.594 336.391 509.36 335.346 508.225 334.157 506.694 333.545 505.901 332.176 503.127 332.176 502.659 332.176 502.461 332.013 501.686 331.815 500.947 331.617 500.209 331.455 499.092 331.455 498.443 331.455 497.11 332.23 493.219 332.662 492.409 332.806 492.121 333.13 491.49 333.364 491.022 334.283 489.166 336.823 486.518 338.48 485.654 338.733 485.527 339.093 485.293 339.291 485.113 339.489 484.933 340.084 484.663 340.606 484.483 342.389 483.906 342.263 485.113 342.263 469.153 342.263 461.515 342.209 454.994 342.155 454.688 342.029 454.057 340.714 452.958 339.489 452.436 339.111 452.274 338.57 451.95 338.264 451.697 337.976 451.445 337.634 451.247 337.526 451.247 337.4 451.247 336.913 450.959 336.427 450.617 335.94 450.274 335.436 449.986 335.31 449.986 335.184 449.986 334.86 449.788 334.571 449.554 334.301 449.32 333.689 448.959 333.22 448.725 332.752 448.509 332.284 448.221 332.158 448.077 332.049 447.933 331.851 447.824 331.725 447.824 331.599 447.824 331.023 447.5 330.446 447.104 329.852 446.708 329.293 446.383 329.167 446.383 329.059 446.383 328.717 446.185 328.429 445.933 328.14 445.699 327.546 445.321 327.114 445.122 326.681 444.924 325.835 444.438 325.24 444.042 324.646 443.663 323.763 443.123 323.259 442.871 322.772 442.618 321.908 442.15 321.367 441.826 319.584 440.763 319.728 442.781 319.746 419.651L319.746 399.439 319.278 398.989 318.809 398.557 310.343 398.557C302.237 398.575 301.858 398.593 301.624 398.917 301.408 399.205 301.372 402.628 301.372 420.191L301.372 441.123 300.741 441.916C299.967 442.871 299.751 443.123 298.49 444.6 297.553 445.717 296.742 446.6 295.77 447.608 294.617 448.797 292.023 451.932 291.788 452.418 291.554 452.868 291.518 454.075 291.536 460.002 291.554 467.874 291.518 467.658 292.815 467.892 293.5 468.036 295.157 468.955 296.274 469.837 297.967 471.188 300.111 473.548 300.111 474.071 300.111 474.179 300.327 474.575 300.597 474.953 300.849 475.332 301.21 476.178 301.372 476.827 301.552 477.475 301.822 478.358 301.984 478.79 302.381 479.853 302.381 483.762 302.002 484.699 301.858 485.059 301.606 485.834 301.444 486.446 301.156 487.581 300.219 489.436 299.408 490.481 298.616 491.526 296.274 493.76 295.517 494.21 292.149 496.228 289.285 496.858 285.34 496.444 283.466 496.264 282.926 496.084 280.115 494.697 278.945 494.102 276.657 492.157 275.792 490.986 275.45 490.517 274.909 489.815 274.603 489.436 274.279 489.058 273.973 488.446 273.919 488.103 273.847 487.743 273.594 487.077 273.36 486.608 272.352 484.645 272.333 478.88 273.324 476.881 273.558 476.412 273.811 475.818 273.865 475.566 273.991 475.043 275 473.404 275.738 472.521 277.594 470.288 279.575 468.829 282.205 467.73 282.637 467.55 283.034 467.225 283.16 466.991 283.304 466.685 283.358 463.875 283.358 457.93L283.358 449.338 284.133 448.437C284.961 447.464 285.448 446.906 286.637 445.573 287.069 445.086 287.627 444.438 287.879 444.15 288.114 443.861 288.528 443.429 288.78 443.159 289.05 442.907 289.879 441.97 290.654 441.069 291.41 440.187 292.185 439.322 292.383 439.178 293.284 438.457 293.266 438.709 293.266 418.372 293.266 399.962 293.248 399.403 292.923 398.989L292.581 398.557 284.097 398.557C277.395 398.557 275.576 398.611 275.396 398.791 275.216 398.971 275.144 403.132 275.072 419.993 274.982 440.817 274.982 440.961 274.603 441.466 274.405 441.736 274.189 442.114 274.117 442.276 274.063 442.438 273.775 442.709 273.504 442.889 273.234 443.051 272.784 443.339 272.514 443.519 272.153 443.771 271.703 443.861 270.838 443.861 269.794 443.861 269.577 443.789 268.785 443.231 268.316 442.889 267.686 442.258 267.398 441.844L266.875 441.105 266.821 420.173 266.785 399.241 266.407 398.899C266.047 398.575 265.614 398.557 257.778 398.557 249.654 398.557 249.51 398.557 249.006 398.935L248.501 399.313 248.411 408.302 248.321 417.291 247.817 418.192C247.312 419.11 246.736 419.993 246.105 420.804 245.907 421.056 245.583 421.578 245.367 421.975 245.151 422.371 244.79 422.947 244.574 423.254 244.358 423.578 244.034 424.064 243.872 424.334 243.691 424.623 243.331 425.181 243.061 425.595 242.449 426.496 241.944 427.271 241.53 427.955 241.35 428.225 240.899 428.946 240.503 429.54 240.107 430.135 239.692 430.819 239.584 431.054 239.458 431.342 239.386 434.44 239.404 440.493 239.404 450.346 239.368 449.986 240.449 450.256 240.701 450.31 241.133 450.527 241.404 450.725 241.674 450.905 241.962 451.067 242.052 451.067 242.142 451.067 242.773 451.445 243.457 451.896 245.385 453.157 247.06 454.886 247.835 456.417 248.051 456.831 248.303 457.21 248.411 457.282 248.501 457.336 248.735 457.894 248.933 458.507 249.132 459.119 249.42 459.948 249.6 460.344 250.05 461.371 250.176 466.091 249.78 467.37 248.843 470.504 248.501 471.188 246.772 473.44 245.691 474.845 242.755 477.367 242.196 477.367 242.07 477.367 241.53 477.601 240.971 477.908 239.134 478.88 235.495 479.223 232.217 478.718 228.091 478.106 223.75 474.773 221.859 470.792 220.994 468.955 220.508 467.279 220.4 465.658 220.255 463.641 220.562 460.416 220.94 459.84 221.084 459.606 221.372 458.939 221.57 458.363 221.769 457.786 222.039 457.174 222.183 457.03 222.309 456.867 222.597 456.417 222.795 456.021 223.264 455.102 225.227 453.03 226.344 452.274 227.335 451.607 228.92 450.689 229.947 450.202 230.343 450.004 230.776 449.734 230.884 449.59 231.064 449.392 231.118 446.78 231.154 439.052L231.208 428.784 231.676 428.081C231.928 427.703 232.433 426.892 232.829 426.298 233.207 425.703 233.658 425.019 233.838 424.767 234.036 424.515 234.342 424.028 234.522 423.686 234.703 423.344 235.081 422.821 235.333 422.515 235.585 422.227 235.801 421.903 235.801 421.812 235.801 421.74 236.09 421.272 236.432 420.804 236.774 420.335 237.062 419.867 237.062 419.759 237.062 419.669 237.315 419.273 237.603 418.894 238.377 417.903 239.404 416.336 239.404 416.138 239.404 416.048 239.62 415.706 239.891 415.4L240.359 414.823 240.413 407.149C240.431 402.61 240.377 399.331 240.287 399.151 240.035 398.665 239.134 398.268 237.261 397.8 236.324 397.566 235.423 397.278 235.279 397.133 235.117 397.007 234.63 396.719 234.18 396.503 233.135 395.999 231.928 395.152 230.974 394.215 230.001 393.261 228.596 391.441 228.596 391.153 228.596 391.027 228.398 390.703 228.164 390.414 227.929 390.126 227.605 389.496 227.461 389.009 227.317 388.505 227.047 387.784 226.867 387.388 226.578 386.758 226.524 385.929 226.434 380.615 226.362 375.859 226.29 374.49 226.092 374.274 225.876 373.986 224.867 373.968 214.905 373.968L203.953 373.968 203.412 374.418C203.124 374.652 202.782 375.121 202.638 375.445 202.512 375.769 202.152 376.418 201.863 376.886 200.782 378.543 200.314 379.336 200.062 379.948 199.918 380.291 199.684 380.669 199.539 380.795 199.395 380.903 199.161 381.263 199.035 381.588 198.909 381.912 198.531 382.56 198.206 383.047 197.882 383.515 197.612 384.019 197.612 384.146 197.612 384.272 197.486 384.488 197.306 384.614 197.144 384.758 196.837 385.28 196.603 385.767 196.387 386.271 196.081 386.794 195.919 386.92 195.757 387.064 195.468 387.496 195.27 387.91 195.072 388.307 194.586 389.171 194.189 389.82 193.811 390.468 193.289 391.369 193.036 391.819 192.802 392.27 192.316 392.864 191.956 393.116L191.343 393.603 182.21 393.585C171.744 393.585 172.194 393.513 171.654 395.098 171.492 395.566 171.204 396.179 171.006 396.449 170.807 396.719 170.465 397.278 170.267 397.674 169.907 398.394 167.781 400.628 166.592 401.547 165.457 402.43 162.971 403.528 161.224 403.907 158.702 404.465 156.919 404.519 155.189 404.069 154.415 403.853 153.604 403.691 153.388 403.691 153.19 403.691 152.685 403.51 152.307 403.312 151.911 403.096 151.136 402.7 150.596 402.412 150.055 402.123 149.317 401.673 148.975 401.421 148.002 400.718 145.786 398.304 145.444 397.584 145.282 397.224 145.012 396.773 144.849 396.575 144.453 396.089 143.462 393.567 143.228 392.378 142.958 391.045 142.994 387.586 143.282 386.397 143.661 384.938 144.453 382.758 144.723 382.434 144.867 382.29 145.138 381.84 145.336 381.443 145.84 380.453 148.074 378.075 149.191 377.354 152.253 375.373 154.451 374.688 157.891 374.688 160.846 374.688 162.701 375.157 165.313 376.544 166.97 377.444 168.862 379.156 169.889 380.741 170.141 381.119 170.573 381.768 170.825 382.164 171.096 382.578 171.438 383.281 171.6 383.749 171.78 384.29 172.104 384.776 172.465 385.046L173.059 385.497 179.814 385.497 186.57 385.497 187.29 384.974C187.686 384.686 188.119 384.182 188.245 383.857 188.371 383.515 188.605 383.101 188.767 382.921 189.127 382.488 189.902 381.191 190.497 379.966 190.767 379.444 191.055 378.976 191.145 378.903 191.235 378.849 191.559 378.345 191.866 377.787 192.55 376.526 193.253 375.319 193.775 374.49 194.009 374.166 194.189 373.788 194.189 373.661 194.189 373.553 194.388 373.211 194.64 372.923 194.892 372.617 195.216 372.076 195.378 371.68 195.54 371.302 195.811 370.833 195.991 370.635 196.189 370.437 196.459 369.969 196.603 369.608 196.765 369.248 196.964 368.888 197.072 368.834 197.18 368.762 197.45 368.311 197.684 367.825 197.918 367.339 198.387 366.672 198.711 366.312L199.305 365.681 212.582 365.681C225.191 365.681 225.858 365.663 226.128 365.357 226.398 365.051 226.434 364.186 226.434 356.656 226.434 349.703 226.398 348.226 226.182 347.92 225.93 347.595 225.533 347.577 213.518 347.487L201.125 347.397 200.242 346.821C198.405 345.614 197.72 343.272 198.729 341.579 198.963 341.164 199.521 340.516 199.954 340.138L200.746 339.471 213.284 339.381C223.57 339.309 225.894 339.255 226.128 339.039 226.398 338.823 226.434 337.994 226.434 330.428 226.434 322.844 226.398 321.998 226.128 321.529L225.822 321.007 207.466 321.007C194.424 321.007 188.893 321.061 188.317 321.205 187.632 321.385 187.452 321.529 187.128 322.16 186.93 322.556 186.606 323.097 186.407 323.331 186.227 323.583 185.903 324.105 185.705 324.502 185.507 324.916 185.038 325.763 184.642 326.411 184.246 327.06 183.723 327.996 183.489 328.519 183.237 329.023 182.949 329.491 182.841 329.564 182.733 329.618 182.444 330.05 182.192 330.518 181.94 330.987 181.472 331.815 181.129 332.356 180.787 332.896 180.319 333.707 180.103 334.157 179.868 334.607 179.454 335.292 179.184 335.688 178.914 336.085 178.697 336.499 178.697 336.607 178.697 336.715 178.463 337.111 178.157 337.49 177.869 337.85 177.581 338.318 177.509 338.534 177.455 338.751 177.256 339.093 177.076 339.291 176.896 339.489 176.554 340.012 176.32 340.462 174.915 343.218 174.752 343.362 172.825 343.542 171.942 343.632 164.449 343.686 156.18 343.668 138.887 343.632 140.022 343.524 139.535 345.164 139.373 345.686 139.139 346.226 138.995 346.388 138.851 346.551 138.563 347.001 138.346 347.397 137.626 348.694 135.933 350.532 134.546 351.522 132.132 353.27 127.754 354.639 125.16 354.423 124.386 354.369 123.539 354.242 123.269 354.134 122.999 354.026 122.242 353.846 121.594 353.702 119.612 353.27 117.234 351.883 115.415 350.081 114.028 348.712 113.758 348.388 113.253 347.361 112.983 346.857 112.695 346.388 112.605 346.334 112.515 346.262 112.262 345.704 112.046 345.055 111.74 344.155 111.578 343.885 111.308 343.885 110.983 343.885 110.965 343.704 110.965 339.669 110.965 335.796 110.983 335.454 111.29 335.382 111.488 335.328 111.722 334.914 111.938 334.229 112.118 333.653 112.497 332.806 112.785 332.374 113.073 331.923 113.307 331.491 113.307 331.401 113.307 331.185 114.478 329.78 115.469 328.807 116.478 327.816 118.297 326.501 118.891 326.321 119.144 326.249 119.702 325.997 120.116 325.745 121.161 325.15 123.377 324.772 125.827 324.772 128.042 324.772 130.673 325.186 131.141 325.6 131.303 325.745 131.843 325.997 132.33 326.159 132.816 326.321 133.411 326.645 133.663 326.861 133.915 327.096 134.365 327.402 134.654 327.546 135.59 328.032 137.824 330.464 138.509 331.725 138.725 332.121 138.977 332.572 139.067 332.716 139.157 332.86 139.409 333.454 139.625 334.031 139.932 334.896 140.112 335.13 140.58 335.328 141.337 335.634 168.033 335.724 169.168 335.418 169.691 335.274 169.979 335.058 170.195 334.661 170.357 334.373 170.717 333.833 170.988 333.491 171.258 333.148 171.528 332.698 171.6 332.482 171.672 332.266 171.942 331.761 172.212 331.365 172.483 330.969 173.041 330.032 173.473 329.293 173.906 328.555 174.446 327.654 174.68 327.294 174.897 326.952 175.095 326.573 175.095 326.483 175.095 326.375 175.383 325.889 175.725 325.402 176.067 324.916 176.356 324.43 176.356 324.303 176.356 324.195 176.554 323.853 176.806 323.565 177.04 323.277 177.4 322.664 177.599 322.214 177.797 321.782 178.049 321.349 178.157 321.277 178.265 321.205 178.517 320.773 178.715 320.34 178.914 319.89 179.274 319.278 179.508 318.989 179.76 318.701 179.958 318.377 179.958 318.287 179.958 318.197 180.247 317.71 180.589 317.206 180.931 316.702 181.219 316.179 181.219 316.053 181.219 315.927 181.4 315.603 181.616 315.333 181.85 315.044 182.192 314.486 182.39 314.09 182.643 313.585 182.931 313.315 183.381 313.153 183.867 312.973 188.875 312.919 204.944 312.919L225.876 312.901 226.11 312.504C226.452 311.91 226.452 295.337 226.11 294.761L225.876 294.346 204.349 294.346C188.281 294.346 182.715 294.292 182.426 294.13 182.066 293.95 179.778 292.005 178.661 290.942 178.139 290.437 177.617 289.969 175.725 288.312 175.041 287.717 174.032 286.799 173.491 286.258 171.654 284.493 172.357 284.619 164.34 284.619 160.287 284.619 157.099 284.691 156.829 284.799 156.522 284.907 156.306 285.195 156.144 285.736 155.91 286.564 155.099 288.042 154.253 289.194 153.37 290.401 151.082 292.563 150.2 293.013 149.749 293.248 149.317 293.518 149.245 293.626 149.191 293.716 148.668 293.932 148.11 294.094 147.551 294.256 146.777 294.545 146.399 294.743 145.03 295.427 139.481 295.481 138.184 294.815 137.878 294.653 137.139 294.364 136.563 294.184 135.987 294.004 135.23 293.644 134.888 293.374 134.546 293.121 134.167 292.905 134.059 292.905 133.717 292.905 130.312 289.429 129.718 288.492 129.069 287.447 128.997 287.285 128.277 285.61 127.142 282.926 127.142 278.044 128.259 275.396 128.565 274.675 128.943 273.847 129.105 273.54 129.267 273.252 129.556 272.712 129.736 272.37 129.916 272.027 130.636 271.127 131.375 270.388 132.96 268.749 133.393 268.37 134.149 267.974 134.473 267.812 135.032 267.488 135.392 267.236 135.752 266.983 136.167 266.785 136.311 266.785 136.455 266.785 137.194 266.533 137.95 266.227 139.283 265.686 139.427 265.65 142.129 265.65L144.921 265.632 146.903 266.335C148.002 266.713 149.209 267.254 149.587 267.542 149.965 267.812 150.362 268.046 150.47 268.046 150.83 268.046 153.586 270.64 153.748 271.145 153.802 271.307 154.036 271.559 154.271 271.721 154.523 271.865 154.811 272.297 154.919 272.676 155.045 273.054 155.297 273.522 155.478 273.721 155.64 273.919 155.964 274.531 156.18 275.09 156.432 275.81 156.667 276.152 156.955 276.224 157.171 276.279 161.224 276.333 165.944 276.333L174.554 276.333 175.113 276.837C175.437 277.107 175.941 277.558 176.248 277.864 176.554 278.152 177.022 278.566 177.292 278.764 177.707 279.071 178.553 279.827 182.03 282.98 184.102 284.853 185.363 285.862 185.885 286.024 186.335 286.186 191.794 286.24 206.187 286.24L225.876 286.24 226.164 285.7C226.398 285.249 226.434 283.97 226.434 276.963 226.434 271.649 226.362 268.623 226.254 268.388 226.074 268.046 225.642 268.046 205.574 268.028 194.315 268.028 184.516 267.974 183.831 267.902 182.336 267.74 181.58 267.254 180.643 265.794 180.121 265.02 180.049 264.75 180.067 263.777 180.067 262.912 180.157 262.552 180.427 262.246 180.625 262.012 180.931 261.597 181.111 261.327 181.273 261.057 181.562 260.769 181.724 260.715 181.886 260.661 182.21 260.444 182.444 260.228L182.877 259.85 204.331 259.796C223.93 259.76 225.804 259.724 226.11 259.454 226.416 259.183 226.434 258.643 226.434 250.771 226.434 243.457 226.398 242.322 226.146 241.962L225.876 241.566 216.292 241.566 206.709 241.566 205.97 241.061C205.556 240.791 204.98 240.431 204.709 240.269 204.421 240.089 203.827 239.71 203.376 239.404 202.926 239.098 202.332 238.72 202.043 238.54 201.755 238.377 201.179 237.963 200.746 237.639 200.296 237.333 199.882 237.062 199.774 237.062 199.684 237.062 199.323 236.828 198.999 236.522 198.657 236.234 198.297 235.982 198.206 235.982 198.098 235.982 197.666 235.711 197.234 235.405 196.801 235.081 196.225 234.685 195.973 234.54 195.703 234.396 194.91 233.874 194.189 233.388 193.433 232.865 192.604 232.451 192.154 232.379 191.127 232.217 175.905 232.181 175.005 232.343 174.464 232.433 174.23 232.595 174.032 233.009 173.87 233.315 173.582 233.838 173.365 234.18 173.149 234.522 172.915 235.009 172.843 235.261 172.609 236.018 170.339 238.936 169.709 239.296 169.546 239.386 169.132 239.71 168.772 240.017 168.069 240.611 166.574 241.566 166.358 241.566 166.286 241.566 165.565 241.872 164.755 242.232L163.296 242.917 159.783 242.917C156.342 242.917 156.252 242.899 155.279 242.43 154.739 242.178 153.946 241.872 153.55 241.764 153.136 241.656 152.685 241.44 152.559 241.278 152.433 241.133 151.947 240.809 151.497 240.575 150.65 240.143 148.47 238.053 147.642 236.882 146.615 235.441 145.552 233.009 145.282 231.478 144.777 228.596 145.12 224.056 145.948 222.651 146.146 222.309 146.435 221.715 146.561 221.318 146.705 220.94 147.029 220.364 147.299 220.021 149.299 217.553 150.74 216.202 152.163 215.482 152.577 215.266 152.956 215.013 153.028 214.905 153.082 214.815 153.604 214.599 154.163 214.437 154.721 214.293 155.604 213.987 156.09 213.77 156.883 213.428 157.315 213.374 159.783 213.374 162.269 213.374 162.683 213.428 163.476 213.77 163.98 213.987 164.719 214.257 165.115 214.365 165.529 214.455 166.124 214.725 166.466 214.959 166.808 215.176 167.277 215.446 167.529 215.572 169.006 216.238 172.465 219.913 172.843 221.21 172.915 221.462 173.149 221.949 173.365 222.291 173.564 222.633 173.87 223.174 174.014 223.462L174.284 224.002 184.642 224.092 195 224.182 196.261 224.957C197.828 225.93 198.693 226.506 199.089 226.867 199.269 227.011 199.792 227.353 200.26 227.605 201.143 228.073 202.007 228.65 202.854 229.298 203.106 229.497 203.611 229.803 203.971 229.965 204.331 230.145 204.637 230.343 204.637 230.433 204.637 230.505 205.034 230.776 205.52 231.028 206.006 231.262 206.457 231.55 206.529 231.658 206.583 231.766 206.979 232.018 207.394 232.217 207.808 232.433 208.312 232.757 208.51 232.937 208.853 233.243 209.429 233.261 218.634 233.315L228.398 233.37 228.776 232.685C229.298 231.784 231.946 229.01 232.631 228.65 232.937 228.506 233.352 228.236 233.55 228.055 233.748 227.875 234.576 227.443 235.405 227.065 237.333 226.2 239.368 225.894 243.133 225.894L246.051 225.894 246.339 225.353C246.574 224.903 246.61 223.408 246.61 214.491 246.61 207.556 246.538 203.971 246.412 203.593 246.267 203.196 245.979 202.926 245.385 202.638 244.916 202.422 244.394 202.115 244.214 201.953 243.782 201.593 242.43 200.8 241.296 200.242 240.791 200.008 240.287 199.684 240.161 199.539 240.035 199.395 239.674 199.161 239.35 199.035 239.026 198.909 238.377 198.531 237.891 198.206 237.423 197.882 236.936 197.612 236.846 197.612 236.756 197.612 236.414 197.432 236.108 197.216 235.783 196.982 235.225 196.657 234.847 196.495 234.468 196.315 233.946 196.009 233.676 195.793 232.883 195.18 231.244 194.189 231.01 194.189 230.884 194.189 230.559 193.991 230.271 193.757 230.001 193.523 229.388 193.145 228.92 192.928 228.416 192.694 227.911 192.298 227.695 191.938 227.353 191.379 227.335 191.073 227.335 182.318 227.335 172.285 227.335 172.249 226.218 171.78 223.804 170.771 222.849 170.141 220.796 168.249 218.742 166.358 217.085 163.332 216.725 160.81 216.455 158.918 216.491 156.018 216.779 154.379 217.049 152.938 218.112 150.542 219.085 149.173 219.391 148.74 220.255 147.786 220.976 147.065 222.597 145.462 223.444 144.921 226.236 143.751 228.884 142.616 233.766 142.616 236.36 143.769 237.026 144.057 237.657 144.291 237.747 144.291 237.837 144.291 238.341 144.579 238.846 144.921 239.35 145.264 239.818 145.552 239.891 145.552 239.963 145.552 240.233 145.75 240.485 146.002 242.539 148.038 242.971 148.488 243.313 149.011 243.547 149.335 243.89 149.965 244.106 150.416 244.322 150.866 244.628 151.388 244.808 151.587 244.988 151.785 245.295 152.721 245.511 153.658 245.709 154.595 245.961 155.658 246.069 156 246.376 157.045 246.285 158.36 245.727 160.81 244.988 163.998 243.926 166.016 241.908 168.051 240.593 169.348 239.674 170.087 238.738 170.555 238.323 170.771 237.945 171.024 237.873 171.132 237.819 171.222 237.423 171.402 237.008 171.51 236.108 171.744 235.819 171.96 235.603 172.555 235.513 172.789 235.423 176.031 235.405 179.76 235.387 186.371 235.405 186.552 235.783 187.182 236.018 187.596 236.45 187.957 236.936 188.155 237.351 188.353 237.837 188.623 238.017 188.767 238.395 189.073 239.476 189.722 241.061 190.569 241.62 190.875 242.124 191.199 242.178 191.289 242.25 191.379 242.719 191.685 243.241 191.938 244.916 192.784 246.213 193.541 247.691 194.55 247.961 194.73 248.555 195.09 249.042 195.342 249.546 195.612 250.465 196.153 251.113 196.531 251.762 196.909 252.662 197.432 253.113 197.684 253.581 197.936 254.158 198.387 254.428 198.693L254.896 199.269 254.896 212.113C254.896 224.489 254.914 224.975 255.238 225.371L255.581 225.804 263.669 225.858C268.1 225.894 271.919 225.858 272.135 225.804 273.09 225.57 273.09 225.57 273.09 213.194L273.09 201.755 273.721 200.494C274.333 199.287 274.423 199.197 275.648 198.585 277.107 197.846 277.449 197.864 278.981 198.621 279.971 199.125 280.89 200.098 281.07 200.873 281.142 201.125 281.196 206.529 281.196 212.906 281.214 220.237 281.286 224.669 281.412 225.011 281.539 225.389 281.755 225.57 282.259 225.714 282.673 225.822 286.024 225.894 290.636 225.894 298.85 225.876 299.102 225.858 299.57 225.011 299.697 224.777 299.751 218.616 299.751 206.529 299.751 186.768 299.805 187.704 298.724 187.164 298.454 187.02 297.823 186.642 297.337 186.317 296.868 185.993 296.364 185.723 296.238 185.723 296.112 185.723 295.896 185.597 295.77 185.417 295.625 185.255 295.157 184.966 294.725 184.768 294.274 184.57 293.59 184.174 293.212 183.903 292.815 183.615 292.401 183.381 292.275 183.381 292.149 183.381 291.752 183.147 291.374 182.841 291.014 182.552 290.546 182.264 290.329 182.192 290.113 182.12 289.699 181.886 289.393 181.67 289.104 181.436 288.672 181.201 288.456 181.147 288.24 181.075 287.771 180.787 287.411 180.499 287.033 180.193 286.618 179.958 286.492 179.958 286.366 179.958 286.024 179.76 285.736 179.508 285.448 179.274 284.835 178.914 284.385 178.715 283.952 178.517 283.52 178.265 283.448 178.157 283.376 178.031 282.89 177.743 282.367 177.509 281.845 177.292 281.358 177.004 281.286 176.896 281.232 176.806 280.872 176.59 280.512 176.428 280.152 176.284 279.683 176.013 279.485 175.833 279.287 175.653 278.782 175.329 278.35 175.113 277.9 174.879 277.503 174.536 277.413 174.266 277.305 173.978 277.233 167.457 277.233 157.459 277.233 145.948 277.179 140.94 277.035 140.526 276.837 139.95 276.315 139.571 275.342 139.355 275.054 139.283 274.567 139.031 274.261 138.815 273.973 138.599 273.468 138.31 273.162 138.184 272.55 137.95 269.613 135.086 268.875 134.023 267.83 132.528 266.947 130.366 266.677 128.619 265.993 124.025 266.731 120.387 269.019 117.054 270.568 114.802 273.414 112.587 275.684 111.866 276.08 111.74 276.423 111.506 276.459 111.308 276.549 110.983 276.801 110.965 281.196 110.965 285.592 110.965 285.844 110.983 285.934 111.308 285.97 111.506 286.312 111.74 286.709 111.866 288.618 112.479 291.59 114.784 293.284 116.946 293.878 117.685 295.427 120.855 295.427 121.305 295.427 121.485 295.589 122.332 295.806 123.197 296.094 124.386 296.166 125.07 296.094 126.187 295.968 128.061 295.247 130.727 294.473 132.258 293.158 134.852 290.78 137.374 288.672 138.436 288.276 138.653 287.789 138.905 287.591 139.013 287.393 139.139 286.853 139.391 286.402 139.571 285.718 139.86 285.556 140.022 285.466 140.508 285.285 141.319 285.321 168.574 285.484 169.33 285.628 169.979 286.078 170.339 288.258 171.474 288.816 171.78 289.339 172.104 289.393 172.212 289.465 172.321 289.933 172.609 290.437 172.861 290.96 173.095 291.897 173.618 292.545 174.014 293.194 174.41 294.058 174.897 294.454 175.095 294.869 175.293 295.283 175.563 295.409 175.689 295.517 175.833 295.95 176.085 296.364 176.266 296.796 176.446 297.283 176.734 297.463 176.878 297.823 177.184 298.922 177.833 300.381 178.607 300.885 178.878 301.444 179.238 301.642 179.418 301.84 179.598 302.309 179.832 302.669 179.94 303.029 180.067 303.425 180.283 303.552 180.445 303.678 180.589 304.2 180.895 304.722 181.129 305.227 181.346 305.713 181.634 305.767 181.742 305.839 181.85 306.218 182.102 306.614 182.3 307.479 182.751 307.875 183.597 307.821 184.894 307.785 185.399 307.785 194.586 307.821 205.304L307.857 224.777 308.325 225.335 308.794 225.894 316.576 225.894C320.845 225.876 324.646 225.84 325.024 225.768 326.303 225.57 326.231 227.029 326.231 203.737 326.231 188.371 326.285 182.715 326.429 182.426 326.627 182.048 329.149 179.094 330.266 177.923 330.554 177.599 331.167 176.95 331.581 176.446 333.058 174.752 334.427 173.221 334.932 172.699 335.958 171.618 335.94 171.762 335.958 163.998L335.976 156.811 335.508 156.414C335.256 156.18 334.896 156 334.715 156 334.535 156 334.175 155.838 333.923 155.64 333.671 155.442 333.148 155.135 332.77 154.991 331.239 154.343 328.303 151.443 327.402 149.695 327.222 149.353 326.934 148.885 326.753 148.65 326.573 148.416 326.393 147.984 326.321 147.66 326.249 147.335 325.997 146.453 325.745 145.678 325.33 144.399 325.294 144.075 325.366 141.607 325.402 139.932 325.492 138.851 325.637 138.689 325.745 138.545 325.979 137.914 326.141 137.266 326.303 136.617 326.573 135.897 326.753 135.644 326.934 135.392 327.258 134.87 327.474 134.473 328.375 132.816 330.284 130.817 332.085 129.61 333.418 128.727 335.724 127.772 337.039 127.556 339.669 127.124 344.083 127.412 345.308 128.079 345.668 128.277 346.316 128.601 346.767 128.799 350.333 130.402 353.252 133.897 354.531 138.076 355.161 140.13 355.053 145.264 354.351 146.633 354.17 146.975 353.882 147.696 353.72 148.218 353.54 148.74 353.216 149.389 352.982 149.659 352.765 149.929 352.531 150.308 352.459 150.506 352.333 150.938 349.577 153.838 349.307 153.838 349.199 153.838 348.982 154 348.802 154.181 348.622 154.379 347.595 154.973 346.515 155.514 345.434 156.072 344.479 156.63 344.407 156.757 344.317 156.883 344.245 160.81 344.245 165.493 344.245 170.717 344.173 174.176 344.065 174.464 343.903 174.897 343.524 175.365 342.515 176.41 342.299 176.626 340.894 178.211 339.399 179.94 337.886 181.67 336.463 183.291 336.229 183.543 335.976 183.795 335.544 184.282 335.256 184.588 334.95 184.912 334.625 185.489 334.535 185.849 334.283 186.714 334.265 224.236 334.499 224.867 334.914 225.948 334.499 225.894 343.614 225.894L351.973 225.894 352.261 225.371C352.495 224.921 352.531 222.129 352.567 203.881L352.621 182.895 353.162 182.12C353.468 181.688 354.098 181.021 354.567 180.643 355.395 179.994 355.521 179.958 356.656 179.958 357.719 179.958 357.989 180.03 358.728 180.517 359.178 180.823 359.827 181.454 360.151 181.922L360.727 182.751 360.818 203.953C360.908 224.002 360.926 225.173 361.232 225.479 361.52 225.786 362.169 225.804 369.915 225.858L378.291 225.912 378.651 225.317C378.994 224.741 379.012 224.417 379.012 216.022L379.012 207.321 379.48 206.205C379.75 205.592 380.128 204.872 380.345 204.619 380.723 204.133 381.497 202.944 382.2 201.719 382.416 201.341 382.776 200.8 383.011 200.512 383.245 200.224 383.569 199.774 383.731 199.485 383.911 199.197 384.29 198.603 384.596 198.152 384.884 197.702 385.37 196.927 385.677 196.405 385.983 195.901 386.361 195.378 386.487 195.27 386.631 195.144 386.758 194.964 386.758 194.874 386.758 194.784 387.082 194.243 387.478 193.667L388.199 192.658 388.199 183.507C388.199 178.481 388.163 174.284 388.109 174.194 388.055 174.104 387.298 173.672 386.433 173.257 385.569 172.843 384.362 172.14 383.731 171.708 382.542 170.879 380.399 168.628 379.876 167.691 379.714 167.385 379.462 167.006 379.3 166.826 379.03 166.538 378.381 164.827 377.823 162.935 377.318 161.26 377.516 156.09 378.111 155.37 378.183 155.279 378.399 154.703 378.561 154.109 378.741 153.514 379.012 152.866 379.174 152.667 379.354 152.469 379.714 151.911 379.984 151.443 380.921 149.785 383.965 147.065 385.461 146.507 385.785 146.381 386.289 146.128 386.577 145.912 387.046 145.57 388.109 145.336 391.297 144.813 393.134 144.525 396.557 145.138 398.647 146.146 402.123 147.822 405.186 151.046 406.194 154.127 406.393 154.703 406.681 155.55 406.861 156 407.113 156.648 407.167 157.405 407.167 159.693 407.185 162.413 407.149 162.629 406.717 163.566 406.465 164.124 406.158 164.989 406.05 165.493 405.924 166.016 405.636 166.592 405.384 166.826 405.15 167.042 404.952 167.331 404.952 167.439 404.952 168.231 400.25 172.753 399.403 172.753 399.115 172.753 397.296 173.726 396.809 174.158 396.503 174.41 396.485 175.131 396.485 184.606L396.485 194.766 395.999 195.576C395.71 196.009 395.188 196.783 394.828 197.306 394.449 197.81 394.143 198.315 394.143 198.405 394.143 198.495 393.891 198.891 393.603 199.305 392.666 200.548 392.18 201.287 391.945 201.755 391.675 202.278 390.27 204.439 389.946 204.8 389.838 204.944 389.568 205.358 389.37 205.718 388.901 206.565 387.964 208.006 387.496 208.636 387.136 209.087 387.118 209.303 387.118 216.022 387.118 219.805 387.172 223.588 387.244 224.417L387.352 225.912 388.721 226.542C389.478 226.903 390.414 227.299 390.811 227.443 391.207 227.587 391.729 227.893 391.982 228.127 392.234 228.344 392.72 228.722 393.08 228.92 394.503 229.785 397.097 233.135 397.746 234.991 397.926 235.495 398.196 236.18 398.34 236.522 398.665 237.279 399.025 240.107 398.989 241.62 398.971 242.232 399.061 242.953 399.187 243.223L399.421 243.727 409.599 243.764 419.795 243.818 420.552 243.241C420.966 242.917 421.344 242.467 421.416 242.232 421.47 241.998 421.758 241.494 422.065 241.115 422.353 240.737 422.605 240.323 422.605 240.197 422.605 240.071 422.803 239.728 423.055 239.44 423.308 239.134 423.668 238.521 423.866 238.071 424.082 237.621 424.316 237.206 424.424 237.134 424.533 237.062 424.821 236.594 425.055 236.072 425.271 235.549 425.559 235.063 425.667 234.991 425.794 234.919 426.046 234.486 426.244 234.018 426.424 233.568 426.73 233.027 426.91 232.829 427.091 232.631 427.631 231.748 428.099 230.848 428.586 229.965 429.162 228.992 429.396 228.722 429.63 228.434 429.811 228.109 429.811 228.001 429.811 227.875 430.099 227.389 430.441 226.903 430.783 226.416 431.072 225.912 431.072 225.768 431.072 225.642 431.36 225.209 431.72 224.813L432.369 224.11 441.97 224.056C452.76 224.002 452.184 224.074 452.418 222.633 452.49 222.255 452.778 221.643 453.049 221.282 453.337 220.94 453.625 220.472 453.697 220.255 454.021 219.229 457.426 215.86 458.453 215.536 458.705 215.464 459.155 215.212 459.443 214.977 459.75 214.761 460.434 214.455 460.975 214.311 461.515 214.149 462.326 213.879 462.776 213.716 463.406 213.464 464.163 213.392 466.289 213.392 468.739 213.374 469.081 213.41 469.891 213.788 470.378 214.023 471.152 214.275 471.585 214.383 472.395 214.563 474.215 215.554 475.025 216.274 475.278 216.491 475.602 216.725 475.764 216.815 476.178 217.031 478.43 219.733 479.061 220.778 479.367 221.246 479.745 222.039 479.907 222.543 480.069 223.048 480.358 223.75 480.556 224.092 480.844 224.651 480.88 225.173 480.88 228.236 480.88 231.496 480.844 231.802 480.484 232.505 480.267 232.901 480.015 233.55 479.907 233.946 479.727 234.612 478.97 235.909 477.962 237.315 476.719 239.008 473.458 241.53 471.963 241.926 471.513 242.052 470.828 242.322 470.432 242.539 469.765 242.881 469.441 242.917 466.199 242.917 462.956 242.917 462.632 242.881 461.965 242.539 461.569 242.322 460.794 242.016 460.236 241.854 459.678 241.692 459.119 241.44 458.975 241.278 458.849 241.133 458.417 240.827 458.02 240.629 457.156 240.197 453.859 236.9 453.661 236.306 453.607 236.072 453.373 235.657 453.175 235.351 452.958 235.063 452.616 234.342 452.418 233.73 452.112 232.829 451.95 232.613 451.499 232.469 451.157 232.361 448.167 232.289 444.078 232.289 436.26 232.289 436.71 232.199 435.737 233.91 434.53 236.072 434.062 236.864 433.413 237.963 433.035 238.612 432.513 239.512 432.261 239.981 432.008 240.449 431.702 240.881 431.594 240.953 431.486 241.007 431.198 241.494 430.964 242.016 430.747 242.539 430.477 243.025 430.369 243.079 430.279 243.151 429.991 243.619 429.739 244.142 429.468 244.646 428.982 245.529 428.64 246.069 428.297 246.61 427.775 247.51 427.469 248.051 427.163 248.591 426.658 249.474 426.37 249.996 426.064 250.519 425.523 251.131 425.163 251.383L424.497 251.834 412.031 251.834 399.547 251.834 399.259 252.284C399.007 252.68 398.971 253.653 398.989 261.237 399.007 267.128 399.079 269.794 399.205 269.974 399.367 270.154 401.529 270.208 410.698 270.208 416.895 270.226 422.317 270.298 422.731 270.37 423.92 270.604 425.001 271.595 425.487 272.91 426.01 274.297 425.992 274.549 425.343 275.99 424.821 277.143 424.767 277.197 423.47 277.846L422.155 278.494 410.788 278.494C402.195 278.494 399.385 278.548 399.223 278.71 399.061 278.873 399.007 281.07 399.007 287.519 399.007 295.283 399.043 296.13 399.313 296.346 399.728 296.706 434.8 296.814 435.845 296.472 436.368 296.292 436.638 296.058 436.944 295.481 437.16 295.067 437.503 294.509 437.719 294.238 437.935 293.968 438.097 293.662 438.097 293.554 438.097 293.446 438.403 292.887 438.782 292.329 439.934 290.546 440.421 289.753 440.619 289.23 440.727 288.942 441.015 288.474 441.249 288.186 441.502 287.897 441.7 287.555 441.7 287.429 441.7 287.303 441.988 286.799 442.33 286.312 442.673 285.826 442.961 285.358 442.961 285.267 442.961 285.177 443.159 284.853 443.393 284.529 443.627 284.223 443.952 283.664 444.114 283.286 444.276 282.908 444.6 282.367 444.852 282.061 445.104 281.773 445.303 281.43 445.303 281.304 445.303 281.178 445.537 280.764 445.843 280.368 446.131 279.989 446.383 279.575 446.383 279.467 446.383 279.359 446.672 278.873 447.014 278.386 447.356 277.9 447.644 277.431 447.644 277.341 447.644 277.251 448.059 276.549 448.563 275.774 449.23 274.783 449.644 274.315 450.04 274.189 450.4 274.045 455.949 273.991 466.937 273.991 479.043 273.991 483.42 273.937 483.762 273.775 484.086 273.63 484.303 273.324 484.483 272.658 484.645 272.153 485.005 271.379 485.293 270.946 485.6 270.514 485.834 270.064 485.834 269.956 485.834 269.866 486.032 269.559 486.284 269.307 489.4 266.119 489.635 265.903 490.553 265.488 490.95 265.308 491.454 265.02 491.706 264.822 491.958 264.624 492.481 264.425 492.877 264.353 493.291 264.281 493.994 264.065 494.462 263.849 496.012 263.164 501.037 263.11 502.064 263.777 502.298 263.939 502.947 264.173 503.487 264.317 504.028 264.461 504.874 264.822 505.361 265.146 505.865 265.452 506.352 265.704 506.478 265.704 506.766 265.704 510.693 269.613 510.693 269.92 510.693 270.028 510.963 270.55 511.305 271.073 511.63 271.595 512.008 272.388 512.134 272.856 512.296 273.378 512.494 273.721 512.71 273.775 513.017 273.847 513.035 274.135 513.035 278.224 513.035 282.313 513.017 282.601 512.71 282.673 512.494 282.727 512.296 283.07 512.134 283.592 511.666 285.303 509.648 288.024 507.54 289.807 506.514 290.654 505.055 291.518 503.902 291.951 503.217 292.185 502.388 292.509 502.046 292.635 500.497 293.212 494.985 293.103 494.012 292.455 493.796 292.329 493.183 292.077 492.625 291.915 492.067 291.752 491.436 291.482 491.202 291.302 490.968 291.122 490.445 290.798 490.031 290.564 489.599 290.329 489.256 290.077 489.256 290.005 489.256 289.933 489.022 289.735 488.734 289.537 488.158 289.176 485.654 286.33 485.654 286.042 485.654 285.952 485.473 285.628 485.257 285.321 485.023 285.015 484.681 284.313 484.483 283.754 484.249 283.07 483.978 282.655 483.672 282.511 483.312 282.331 480.177 282.295 468.739 282.331 454.49 282.367 454.255 282.367 454.021 282.727 453.211 283.88 452.544 284.943 452.436 285.303 452.364 285.52 452.13 285.916 451.896 286.204 451.679 286.474 451.391 286.979 451.247 287.321 451.121 287.663 450.869 288.114 450.707 288.312 450.527 288.51 450.202 288.996 450.004 289.393 449.788 289.789 449.284 290.636 448.905 291.284 448.527 291.933 447.951 292.905 447.644 293.446 447.338 293.986 446.762 294.959 446.383 295.607 445.987 296.256 445.573 296.976 445.447 297.229 445.321 297.481 444.96 298.075 444.636 298.562 444.312 299.03 444.042 299.498 444.042 299.588 444.042 299.679 443.753 300.165 443.411 300.669 443.069 301.174 442.781 301.696 442.781 301.804 442.781 301.93 442.618 302.182 442.438 302.399 442.24 302.597 441.88 303.173 441.628 303.678 441.285 304.362 441.033 304.614 440.673 304.686 440.385 304.758 431.036 304.812 419.867 304.849 401.601 304.885 399.529 304.921 399.277 305.173 399.025 305.425 398.989 306.434 398.989 313.945 399.007 320.449 399.061 322.52 399.223 322.808 399.457 323.169 399.583 323.169 420.137 323.169L440.817 323.169 441.664 323.655C442.132 323.925 442.727 324.358 442.997 324.61 443.411 325.006 444.51 325.979 445.303 326.681 445.447 326.807 446.509 327.744 447.644 328.753 448.779 329.762 450.436 331.185 451.301 331.923L452.886 333.256 459.714 333.256C463.461 333.256 466.739 333.184 466.973 333.094 467.279 332.968 467.676 332.392 468.36 330.969 469.369 328.951 470.954 326.861 472.089 326.087 472.413 325.871 472.684 325.618 472.684 325.546 472.684 325.474 472.954 325.258 473.278 325.078 473.584 324.88 474.017 324.592 474.215 324.43 474.413 324.267 474.863 324.015 475.206 323.889 475.548 323.763 476.25 323.457 476.773 323.223 478.322 322.502 482.141 322.232 484.807 322.646 485.546 322.754 486.662 323.115 487.401 323.457 488.103 323.799 488.752 324.069 488.842 324.069 488.968 324.087 489.941 324.772 491.724 326.123 492.823 326.988 494.859 329.69 495.291 330.915 495.417 331.257 495.687 331.833 495.885 332.176 496.858 333.851 496.858 340.3 495.903 342.173 495.687 342.552 495.381 343.29 495.183 343.812 494.985 344.317 494.679 344.875 494.48 345.055 494.282 345.236 494.12 345.488 494.12 345.614 494.12 345.992 491.544 348.658 490.842 349.036 490.553 349.181 490.337 349.361 490.337 349.451 490.337 349.667 487.167 351.198 486.374 351.36 486.032 351.432 485.275 351.648 484.681 351.829 483.528 352.207 480.826 352.297 479.709 351.991 479.367 351.901 478.394 351.667 477.547 351.45 476.701 351.252 475.728 350.874 475.368 350.64 475.025 350.388 474.665 350.189 474.557 350.189 474.467 350.189 473.855 349.793 473.206 349.325 471.765 348.28 469.585 345.902 469.063 344.785 468.847 344.335 468.576 343.849 468.45 343.704 468.342 343.56 468.09 343.038 467.928 342.57 467.712 341.975 467.46 341.651 467.153 341.525 466.901 341.435 463.118 341.363 458.417 341.363 451.265 341.363 450.058 341.327 449.536 341.074 449.013 340.822 446.419 338.697 445.086 337.418 444.546 336.877 444.186 336.571 441.358 334.067 440.241 333.076 438.98 332.049 438.565 331.779L437.827 331.275 418.696 331.275 399.565 331.275 399.295 331.671C399.043 332.031 399.007 333.166 399.007 340.552 399.007 347.595 399.043 349.091 399.259 349.397 399.511 349.739 399.998 349.739 420.389 349.829 435.629 349.901 441.376 349.973 441.7 350.135 442.366 350.424 443.447 351.612 443.771 352.387 444.132 353.27 444.114 354.477 443.717 355.161 442.799 356.818 442.618 356.981 441.285 357.467L439.988 357.935 419.813 357.935C400.502 357.935 399.619 357.953 399.313 358.278 399.007 358.584 398.989 359.088 399.007 367.14 399.007 374.004 399.061 375.733 399.259 375.913 399.457 376.111 401.151 376.165 408.122 376.147 413.058 376.129 417.003 376.201 417.345 376.291 417.669 376.382 418.498 376.85 419.2 377.336 419.903 377.805 420.696 378.309 420.948 378.453 421.218 378.579 421.632 378.885 421.885 379.102 422.137 379.336 422.677 379.678 423.091 379.894 423.506 380.092 423.902 380.345 423.956 380.453 424.01 380.561 424.406 380.813 424.821 381.029 425.235 381.227 425.776 381.552 426.028 381.75 426.766 382.326 427.703 382.939 428.37 383.317 428.712 383.497 429.252 383.875 429.54 384.128 429.847 384.38 430.171 384.596 430.261 384.596 430.369 384.596 430.747 384.794 431.108 385.046L431.774 385.497 440.529 385.497 449.284 385.497 449.698 385.046C449.932 384.812 450.491 383.839 450.959 382.885 451.427 381.948 451.878 381.173 451.95 381.173 452.004 381.173 452.202 380.957 452.364 380.687 452.76 380.002 455.174 377.57 455.949 377.084 457.048 376.364 459.209 375.391 460.326 375.121 463.388 374.382 467.694 374.634 469.982 375.697 472.377 376.814 473.026 377.246 474.611 378.759 476.25 380.345 476.593 380.831 477.637 382.921 478.286 384.2 478.556 384.992 478.826 386.505 479.259 388.955 479.259 389.874 478.808 392.432 478.412 394.576 477.709 396.269 476.412 398.106 475.836 398.917 473.837 400.934 472.9 401.655 471.116 403.024 466.793 404.411 464.397 404.411 463.767 404.411 462.272 404.195 461.083 403.943 458.867 403.456 457.552 402.862 455.57 401.475 454.76 400.916 452.508 398.665 452.508 398.43 452.508 398.376 452.31 398.07 452.058 397.782 451.806 397.494 451.247 396.521 450.779 395.62 450.328 394.72 449.842 393.891 449.698 393.765 449.5 393.603 446.888 393.549 439.394 393.531L429.36 393.513 428.37 393.008C427.829 392.738 426.82 392.108 426.118 391.603 425.433 391.117 424.695 390.63 424.479 390.558 424.28 390.468 423.884 390.198 423.578 389.946 423.29 389.694 422.749 389.37 422.371 389.225 422.011 389.063 421.704 388.847 421.704 388.739 421.704 388.631 421.434 388.433 421.092 388.289 420.768 388.145 420.245 387.838 419.975 387.604 419.687 387.37 419.146 387.028 418.786 386.848 418.408 386.685 418.102 386.469 418.102 386.361 418.102 386.271 417.795 386.055 417.417 385.893 417.057 385.731 416.426 385.352 416.048 385.046L415.346 384.506 407.311 384.506 399.295 384.506 399.079 384.956C398.953 385.208 398.773 385.821 398.683 386.307 398.358 387.856 397.476 390.036 396.629 391.369 395.422 393.242 392.63 395.963 391.315 396.521 391.045 396.647 390.612 396.881 390.36 397.043 389.46 397.638 386.271 398.34 383.803 398.467 381.696 398.575 381.443 398.629 381.155 398.989 380.849 399.367 380.831 400.034 380.831 409.509 380.831 417.903 380.885 419.687 381.101 420.101 381.371 420.624 382.416 421.524 382.758 421.524 382.867 421.524 383.173 421.722 383.461 421.957 383.731 422.191 384.344 422.533 384.794 422.731 385.262 422.947 385.677 423.182 385.749 423.29 385.803 423.398 386.289 423.686 386.812 423.938 387.316 424.208 388.199 424.695 388.739 425.037 389.676 425.613 390.432 426.046 392.72 427.343 393.297 427.667 393.891 428.045 394.071 428.207 394.269 428.37 394.666 428.586 394.99 428.712 395.314 428.838 395.674 429.072 395.8 429.216 395.927 429.36 396.431 429.685 396.935 429.919 398.629 430.747 399.637 431.414 399.944 431.918 400.232 432.387 400.268 433.179 400.268 441.61 400.268 450.238 400.286 450.833 400.61 451.301 401.006 451.914 401.457 452.238 402.141 452.4 403.673 452.778 407.131 455.57 408.518 457.552 409.239 458.597 410.5 461.209 410.716 462.146 410.824 462.542 410.95 463.839 411.004 465.028 411.148 467.658 410.86 470.054 410.266 471.333 410.031 471.837 409.707 472.521 409.545 472.864 409.041 474.017 407.906 475.494 406.573 476.737 404.97 478.25 404.501 478.628 404.303 478.628 404.177 478.628 403.853 478.826 403.564 479.061 403.294 479.295 402.7 479.601 402.249 479.763 401.799 479.907 400.988 480.213 400.448 480.43 398.503 481.204 393.206 481.096 391.747 480.249 391.423 480.069 390.919 479.871 390.612 479.799 390.054 479.691 388.721 478.934 387.424 477.962 385.767 476.755 384.037 474.791 383.407 473.404 383.245 473.062 382.957 472.558 382.776 472.287 382.38 471.747 381.515 468.216 381.407 466.739 381.281 465.082 382.11 460.849 382.758 459.894 382.921 459.642 383.209 459.137 383.371 458.741 383.551 458.363 383.911 457.768 384.2 457.426 385.172 456.183 387.334 454.129 388.163 453.661 388.631 453.391 389.135 453.067 389.279 452.94 389.424 452.814 390 452.562 390.54 452.382 391.297 452.13 391.603 451.914 391.873 451.445 392.198 450.869 392.216 450.509 392.18 444.096 392.126 436.494 392.108 436.296 390.955 435.809 390.594 435.665 390.036 435.359 389.748 435.125 389.442 434.909 389.009 434.656 388.793 434.602 388.577 434.53 388.109 434.242 387.748 433.954 387.388 433.666 386.92 433.377 386.703 433.305 386.487 433.251 386.145 433.035 385.947 432.855 385.749 432.675 385.262 432.405 384.866 432.242 384.488 432.08 383.911 431.738 383.605 431.504 383.281 431.27 382.957 431.072 382.867 431.072 382.776 431.072 382.308 430.783 381.822 430.441 381.335 430.099 380.831 429.811 380.705 429.811 380.579 429.811 380.237 429.612 379.948 429.36 379.642 429.108 379.102 428.784 378.705 428.622 378.327 428.46 377.787 428.135 377.516 427.901 377.228 427.667 376.886 427.469 376.76 427.469 376.634 427.469 376.273 427.271 375.985 427.018 375.679 426.766 375.175 426.442 374.832 426.316 374.508 426.172 373.878 425.758 373.463 425.397L372.707 424.731 372.707 411.977C372.707 399.259 372.707 399.241 372.328 398.899 371.968 398.575 371.554 398.557 363.61 398.557L355.269 398.557 354.783 399.007 354.297 399.457 354.369 410.806 354.441 422.155 353.846 423.38C353.252 424.569 353.18 424.641 352.027 425.181 350.694 425.776 350.352 425.812 349.018 425.379 348.208 425.109 347.433 424.497 346.587 423.434 346.352 423.146 346.298 421.398 346.226 411.094L346.136 399.097 345.596 398.845C344.767 398.43 329.654 398.34 328.717 398.719 328.357 398.881 328.014 399.061 327.96 399.151 327.906 399.241 327.852 407.365 327.834 417.237 327.816 434.981 327.816 435.161 328.176 435.881 328.411 436.332 328.771 436.692 329.113 436.836 329.419 436.962 329.96 437.304 330.32 437.575 330.68 437.863 331.059 438.097 331.185 438.097 331.311 438.097 331.617 438.259 331.887 438.475 332.158 438.691 332.842 439.088 333.436 439.376 334.013 439.646 334.535 439.97 334.607 440.079 334.661 440.187 335.004 440.385 335.364 440.529 335.706 440.673 336.229 440.997 336.535 441.249 336.823 441.502 337.165 441.7 337.291 441.7 337.436 441.7 337.742 441.862 338.012 442.078 338.282 442.294 338.967 442.709 339.525 442.997 341.453 444.006 342.119 444.384 342.425 444.636 342.588 444.78 343.128 445.122 343.614 445.375 344.119 445.645 344.965 446.131 345.506 446.473 346.046 446.816 346.875 447.284 347.343 447.536 348.154 447.987 349.127 448.581 349.973 449.176L350.37 449.464 350.37 466.289 350.37 483.096 350.82 483.654C351.09 483.978 351.648 484.303 352.225 484.501 352.747 484.663 353.396 485.005 353.666 485.221 353.954 485.455 354.242 485.654 354.315 485.654 354.567 485.654 356.566 487.329 357.413 488.266 358.512 489.473 358.89 490.049 359.845 491.904 361.124 494.39 361.448 497.327 360.908 501.073 360.601 503.145 359.989 504.622 358.638 506.658 358.115 507.432 355.287 510.188 354.531 510.639 354.279 510.801 353.774 511.107 353.432 511.341 353.09 511.558 352.315 511.882 351.739 512.062 351.054 512.278 350.64 512.512 350.586 512.71 350.514 513.017 350.171 513.035 346.388 513.035 342.948 513.035 342.263 512.999 342.263 512.782ZM347.613 504.766C349.613 504.478 351.865 502.695 352.477 500.911 353.252 498.696 353.27 498.371 352.801 496.534 352.315 494.588 351.703 493.724 350.009 492.589 348.766 491.76 347.848 491.544 345.812 491.634 344.353 491.688 344.029 491.76 343.254 492.229 341.957 493.021 340.84 494.3 340.174 495.777 339.363 497.543 339.345 498.714 340.102 500.335 340.408 500.965 340.642 501.56 340.642 501.65 340.642 501.884 342.317 503.667 342.534 503.667 342.624 503.667 343.002 503.884 343.362 504.136 343.758 504.406 344.461 504.658 345.001 504.748 346.334 504.946 346.37 504.946 347.613 504.766ZM289.861 487.995C290.672 487.761 292.761 485.762 293.536 484.483 294.04 483.636 294.076 483.456 294.076 481.763 294.076 480.105 294.04 479.889 293.608 479.241 293.356 478.844 293.085 478.358 293.013 478.142 292.869 477.709 291.446 476.376 290.473 475.782 288.834 474.791 286.294 474.755 284.547 475.728 283.07 476.539 282.944 476.629 282.151 477.637 281.16 478.898 281.178 478.88 280.908 480.394 280.602 482.213 280.926 484.267 281.683 485.257 281.953 485.6 282.277 486.05 282.367 486.212 282.673 486.734 284.727 487.995 285.556 488.176 286.474 488.374 288.924 488.266 289.861 487.995ZM398.34 472.521C399.223 472.305 400.592 471.351 401.493 470.324 403.438 468.126 403.42 464.091 401.493 461.875 400.574 460.812 399.025 459.768 398.106 459.588 397.35 459.425 395.386 459.425 394.503 459.588 392.99 459.876 390.973 461.713 390.216 463.461 389.352 465.514 389.352 466.631 390.216 468.63 390.739 469.801 392.18 471.603 392.594 471.603 392.684 471.603 392.936 471.765 393.134 471.945 393.351 472.143 393.801 472.377 394.143 472.467 394.936 472.702 397.44 472.72 398.34 472.521ZM237.441 470.468C238.972 469.927 240.107 468.973 241.043 467.388 241.818 466.109 241.818 466.109 241.818 464.307 241.818 462.47 241.728 462.128 240.845 460.632 239.909 458.993 237.477 457.57 235.351 457.426 234.162 457.354 234.018 457.39 232.649 458.056 231.856 458.453 230.92 459.047 230.577 459.389 230.001 459.93 229.731 460.326 228.974 461.677 228.632 462.29 228.506 464.812 228.74 465.964 229.136 467.802 231.064 469.945 232.649 470.324 233.153 470.432 233.676 470.612 233.82 470.702 234.324 471.026 236.198 470.9 237.441 470.468ZM158.972 396.143C161.044 395.494 162.557 394.503 163.296 393.315 163.494 393.008 163.8 392.558 163.962 392.324 164.394 391.729 164.611 389.964 164.467 388.451 164.232 386.055 162.395 383.875 159.963 383.155 158.252 382.632 157.297 382.632 155.73 383.155 153.964 383.731 152.577 385.01 151.677 386.884 151.388 387.478 151.316 388 151.298 389.406 151.298 391.369 151.461 392.09 152.073 392.9 153.892 395.35 156.937 396.773 158.972 396.143ZM466.415 395.782C466.883 395.584 467.352 395.404 467.46 395.404 467.586 395.404 468.234 394.864 468.919 394.197 469.837 393.315 470.234 392.792 470.432 392.18 470.576 391.729 470.792 391.027 470.936 390.63 471.513 389.027 470.612 386.379 468.919 384.668 467.928 383.677 467.694 383.533 466.253 383.101 465.388 382.831 464.505 382.614 464.325 382.614 464.127 382.614 463.28 382.831 462.434 383.083 461.047 383.515 460.776 383.677 459.768 384.668 458.921 385.497 458.525 386.091 458.11 387.064 457.39 388.757 457.372 389.802 458.092 391.693 458.903 393.873 460.416 395.26 462.956 396.143 463.677 396.395 465.496 396.197 466.415 395.782ZM338.48 392.306C391.405 392.252 386.361 392.396 388.739 390.829 390.234 389.838 391.189 388.703 392.09 386.848L392.792 385.406 392.792 312.18 392.792 238.954 392.162 237.603C391.819 236.864 391.279 235.909 390.955 235.477 390.27 234.576 388.811 233.279 388.487 233.279 388.361 233.279 388.109 233.135 387.946 232.937 387.154 232.073 390.901 232.109 312.45 232.109 242.809 232.109 238.918 232.127 238.323 232.415 236.648 233.261 235.982 233.73 234.973 234.829 234.108 235.747 233.712 236.378 233.171 237.657L232.469 239.314 232.469 312.27 232.469 385.226 232.883 385.947C233.099 386.343 233.37 386.956 233.46 387.298 233.676 388.091 235.459 390.072 236.72 390.919 237.675 391.567 239.999 392.27 241.566 392.378 241.908 392.414 253.311 392.414 266.875 392.396 280.458 392.36 312.667 392.324 338.48 392.306ZM128.313 345.668C130.114 344.893 131.915 342.912 132.312 341.273 132.564 340.174 132.42 337.76 132.042 336.967 131.069 334.968 129.664 333.725 127.682 333.148 126.872 332.914 126.007 332.716 125.773 332.716 124.998 332.716 122.296 333.635 121.99 334.013 121.81 334.211 121.449 334.481 121.179 334.625 120.891 334.788 120.567 335.112 120.459 335.382 120.333 335.652 120.026 336.229 119.756 336.679 118.783 338.354 118.927 341.182 120.08 342.948 120.963 344.245 121.738 344.929 123.197 345.632 124.89 346.443 126.511 346.461 128.313 345.668ZM484.591 343.29C487.437 341.921 488.734 339.471 488.338 336.229 488.103 334.373 487.815 333.761 486.59 332.5 485.149 330.987 483.06 330.356 480.7 330.734 479.006 331.005 478.664 331.167 477.439 332.23 476.827 332.788 476.322 333.473 475.872 334.373 475.26 335.598 475.206 335.814 475.206 337.273 475.206 338.751 475.26 338.949 475.836 340.066 476.647 341.597 477.529 342.497 478.898 343.2 480.934 344.245 482.501 344.281 484.591 343.29ZM144.669 286.709C145.768 286.204 146.435 285.736 147.119 284.961 147.497 284.547 147.84 284.115 147.876 284.006 147.912 283.898 148.146 283.484 148.416 283.106 148.848 282.457 148.885 282.259 148.885 280.476 148.885 278.674 148.848 278.512 148.398 277.846 148.11 277.449 147.894 277.017 147.894 276.891 147.894 276.603 146.309 275.09 145.462 274.567 144.453 273.955 143.354 273.757 141.589 273.847 140.094 273.937 139.95 273.991 138.815 274.729 137.356 275.684 136.221 277.125 135.861 278.494 135.572 279.575 135.644 282.151 135.987 283.034 136.509 284.421 138.959 286.6 140.382 286.979 141.247 287.195 143.967 287.033 144.669 286.709ZM501.884 283.79C504.298 282.133 505.235 279.935 504.802 276.999 504.532 275.144 503.523 273.685 501.56 272.37 500.533 271.667 499.254 271.397 497.579 271.523 496.57 271.595 496.084 271.739 495.543 272.081 495.165 272.333 494.787 272.55 494.697 272.55 494.462 272.55 492.949 274.207 492.355 275.126 491.706 276.152 491.49 277.413 491.67 279.179 491.85 280.908 492.877 282.511 494.534 283.646 496.066 284.691 496.48 284.799 498.768 284.727L500.641 284.655 501.884 283.79ZM162.125 234.54C163.35 234.18 165.133 232.415 165.944 230.758 166.412 229.767 166.502 229.37 166.502 228.2 166.502 227.443 166.43 226.722 166.322 226.578 166.232 226.452 165.998 225.948 165.818 225.443 165.421 224.399 164.304 223.192 162.845 222.273 161.873 221.661 161.836 221.661 159.783 221.661 157.711 221.661 157.711 221.661 156.63 222.327 154.973 223.336 154.109 224.327 153.55 225.894 152.884 227.713 152.884 229.01 153.532 230.649 153.82 231.334 154.235 232.091 154.469 232.307 154.721 232.541 154.919 232.793 154.919 232.901 154.919 232.991 155.243 233.261 155.64 233.478 156.036 233.712 156.36 233.946 156.36 234.036 156.36 234.252 157.189 234.558 158.252 234.721 159.242 234.883 161.242 234.793 162.125 234.54ZM468.126 234.648C469.333 234.324 470.9 233.117 471.819 231.802 472.413 230.974 472.576 230.559 472.72 229.424 473.188 226.2 472.107 224.038 469.135 222.201 468.306 221.679 468.18 221.661 466.199 221.661 464.217 221.661 464.091 221.679 463.262 222.201 462.091 222.921 461.119 223.84 460.308 225.011L459.624 225.984 459.624 228.146 459.624 230.307 460.47 231.604C461.569 233.261 462.956 234.342 464.379 234.648 465.748 234.955 467.009 234.955 468.126 234.648ZM394.666 165.836C395.855 165.439 396.269 165.169 397.26 164.16 397.674 163.764 398.376 162.719 398.683 162.125 399.007 161.458 398.989 157.657 398.647 157.063 397.818 155.64 397.584 155.333 396.881 154.667 395.873 153.73 393.873 152.92 392.432 152.884 391.585 152.848 391.063 152.974 390.09 153.388 387.73 154.379 386.145 156.234 385.803 158.396 385.551 160.035 385.839 161.909 386.469 162.755 386.721 163.079 386.938 163.422 386.938 163.494 386.938 163.584 387.352 164.034 387.856 164.521 388.685 165.313 389.892 165.908 391.531 166.322 392.144 166.484 393.261 166.304 394.666 165.836ZM232.847 164.286C233.838 164.052 235.405 163.079 236.18 162.215 236.54 161.818 237.08 160.936 237.405 160.233 237.891 159.17 237.981 158.774 237.981 157.657 237.981 155.838 237.152 154.091 235.675 152.758 234.144 151.388 233.73 151.244 231.298 151.244 229.082 151.244 228.65 151.352 227.299 152.361 225.948 153.352 225.245 154.415 224.813 156.18 224.579 157.153 224.453 158 224.525 158.288 225.011 160.233 225.389 161.206 225.984 161.836 226.326 162.215 226.614 162.593 226.614 162.665 226.614 162.737 226.921 162.953 227.299 163.115 227.659 163.296 228.2 163.602 228.488 163.8 229.388 164.43 231.298 164.647 232.847 164.286ZM342.912 148.164C344.389 147.443 346.082 145.75 346.424 144.651 346.749 143.57 346.821 141.607 346.587 140.31 346.352 138.995 346.1 138.599 344.425 136.959 343.146 135.716 340.876 135.212 338.606 135.644 337.634 135.824 337.201 136.023 336.229 136.779 332.031 140.004 332.644 145.678 337.454 148.182 338.444 148.686 338.751 148.758 340.084 148.776 341.471 148.794 341.705 148.74 342.912 148.164ZM282.565 132.24C283.664 132.024 285.231 131.105 286.096 130.132 286.907 129.249 287.807 127.304 287.97 126.133 288.222 124.17 286.763 121.395 284.673 119.846 283.97 119.324 282.872 119.072 281.196 119.072 278.71 119.072 278.008 119.378 276.224 121.233 275.36 122.134 275.234 122.368 274.783 123.935L274.315 125.665 274.711 127.088C275.216 128.889 275.396 129.231 276.369 130.24 278.152 132.078 280.115 132.708 282.565 132.24Z" fill="#FFFFFF" transform="matrix(1 0 0 -1 0 624)"/><path d="M255.707 381.101C254.572 380.957 253.617 380.741 253.185 380.507 252.788 380.291 252.014 379.912 251.473 379.66 250.122 379.012 249.132 378.273 247.817 376.922 246.231 375.283 245.799 374.706 245.277 373.589 245.006 373.067 244.682 372.418 244.538 372.166 244.394 371.914 244.088 370.797 243.836 369.68L243.367 367.645 243.367 312.054 243.367 256.445 243.836 254.536C244.088 253.491 244.628 251.96 245.024 251.113 245.763 249.618 247.564 247.258 248.573 246.52 248.825 246.339 249.114 246.069 249.186 245.943 249.258 245.817 249.726 245.511 250.212 245.259 250.699 245.006 251.131 244.736 251.185 244.646 251.257 244.556 251.708 244.34 252.23 244.16 252.734 243.998 253.401 243.709 253.707 243.529 254.067 243.331 254.95 243.133 256.139 243.025 257.4 242.881 275.702 242.827 313.153 242.827 373.265 242.827 369.752 242.773 372.346 243.836 374.868 244.88 377.336 246.736 378.867 248.771 379.606 249.744 380.993 252.266 380.993 252.608 380.993 252.752 381.209 253.509 381.497 254.284L381.984 255.707 382.038 310.919C382.074 345.452 382.02 366.672 381.912 367.573 381.678 369.482 380.993 371.752 380.146 373.427 379.318 375.049 379.138 375.283 377.282 377.12 375.697 378.669 375.049 379.156 373.788 379.732 373.337 379.948 372.635 380.273 372.238 380.471 371.824 380.651 371.103 380.903 370.617 381.029 369.32 381.353 258.283 381.407 255.707 381.101ZM370.725 374.346C372.851 373.247 374.922 371.049 375.157 369.662 375.211 369.302 375.391 368.654 375.553 368.203 375.841 367.447 375.859 363.322 375.895 312.847 375.931 280.692 375.877 257.868 375.769 257.274 375.409 255.022 374.994 253.851 374.112 252.698 373.121 251.401 371.968 250.465 370.455 249.744L369.014 249.042 312.721 249.042 256.427 249.042 255.617 249.438C255.166 249.654 254.518 249.96 254.176 250.104 252.464 250.807 250.573 253.203 249.924 255.473L249.492 256.968 249.492 311.928 249.492 366.906 249.906 368.509C250.375 370.329 250.987 371.428 252.23 372.707 253.149 373.679 255.148 374.796 256.355 375.03 256.788 375.121 282.331 375.175 313.189 375.157L369.212 375.139 370.725 374.346Z" fill="#FFFFFF" transform="matrix(1 0 0 -1 0 624)"/><path d="M296.778 344.083C295.265 343.849 292.077 342.155 290.672 340.858 289.933 340.156 288.294 337.922 288.132 337.4 288.06 337.147 287.825 336.625 287.591 336.229 287.357 335.832 287.087 335.022 286.979 334.427 286.871 333.851 286.618 333.058 286.438 332.698 286.24 332.32 285.988 331.509 285.88 330.879 285.772 330.248 285.484 329.293 285.249 328.753 285.015 328.212 284.727 327.276 284.601 326.681 284.493 326.087 284.259 325.312 284.079 324.97 283.898 324.628 283.664 323.853 283.538 323.259 283.43 322.664 283.124 321.691 282.89 321.097 282.655 320.503 282.385 319.566 282.259 319.025 282.151 318.485 281.899 317.728 281.719 317.35 281.521 316.99 281.25 316.053 281.088 315.279 280.944 314.522 280.656 313.567 280.476 313.153 280.278 312.757 280.007 311.838 279.845 311.135 279.701 310.415 279.413 309.532 279.233 309.154 279.035 308.776 278.782 307.947 278.674 307.316 278.566 306.686 278.314 305.875 278.134 305.533 277.972 305.173 277.684 304.29 277.521 303.552 277.359 302.831 277.071 301.93 276.873 301.57 276.693 301.21 276.441 300.381 276.333 299.733 276.224 299.102 275.972 298.237 275.792 297.841 275.612 297.427 275.342 296.508 275.18 295.788 275.018 295.067 274.729 294.184 274.549 293.824 274.369 293.464 274.081 292.491 273.901 291.644 273.721 290.816 273.414 289.807 273.234 289.429 272.928 288.87 272.874 288.42 272.892 286.961 272.91 285.267 272.928 285.123 273.576 283.97 274.477 282.313 275.45 281.394 277.071 280.602 278.332 279.989 278.548 279.935 280.061 279.935 281.593 279.935 281.791 279.971 282.944 280.584 285.177 281.755 286.6 283.574 287.069 285.862 287.231 286.6 287.465 287.429 287.591 287.681 287.735 287.952 287.97 288.834 288.15 289.681 288.312 290.509 288.582 291.518 288.762 291.915 288.942 292.311 289.176 293.121 289.303 293.716 289.411 294.31 289.591 295.067 289.699 295.391 290.041 296.49 290.131 296.508 299.426 296.508 306.686 296.508 307.821 296.472 308.181 296.22 308.397 296.076 308.577 295.806 308.577 295.643 308.577 295.463 308.74 294.995 308.938 294.617 309.154 294.22 309.46 293.194 309.658 292.329 309.838 291.464 310.127 290.527 310.271 290.221 310.433 289.915 310.685 289.104 310.829 288.402 310.973 287.699 311.207 286.907 311.352 286.637 311.496 286.366 311.748 285.61 311.91 284.979 312.072 284.349 312.432 283.556 312.685 283.214 313.405 282.313 314.738 281.016 314.954 281.016 315.044 281.016 315.459 280.8 315.855 280.53 316.521 280.061 316.702 280.025 318.809 279.953L321.043 279.899 322.322 280.566C324.321 281.611 325.817 283.322 326.249 285.033 326.591 286.42 326.375 289.158 325.817 290.564 325.564 291.212 325.222 292.293 325.078 292.959 324.916 293.626 324.664 294.418 324.52 294.707 324.376 294.995 324.087 295.914 323.889 296.778 323.691 297.625 323.421 298.508 323.277 298.724 323.133 298.94 322.916 299.606 322.808 300.201 322.682 300.795 322.394 301.732 322.16 302.291 321.926 302.849 321.619 303.876 321.475 304.578 321.331 305.281 321.097 306.037 320.935 306.272 320.791 306.506 320.503 307.37 320.304 308.217 320.106 309.064 319.818 310 319.656 310.307 319.512 310.613 319.296 311.352 319.188 311.928 319.079 312.504 318.845 313.279 318.647 313.657 318.467 314.018 318.143 315.026 317.945 315.873 317.746 316.72 317.458 317.656 317.314 317.927 317.17 318.215 316.918 319.043 316.756 319.764 316.594 320.503 316.323 321.385 316.143 321.727 315.963 322.07 315.729 322.844 315.603 323.439 315.477 324.033 315.206 324.97 314.972 325.51 314.738 326.051 314.468 326.988 314.342 327.582 314.216 328.176 313.964 328.969 313.783 329.329 313.585 329.708 313.315 330.572 313.171 331.275 313.027 331.977 312.775 332.788 312.63 333.076 312.486 333.364 312.234 334.121 312.09 334.733 311.37 337.832 308.974 340.912 305.803 342.75 305.587 342.876 304.812 343.236 304.074 343.542 302.795 344.083 302.579 344.119 300.201 344.173 298.814 344.191 297.283 344.155 296.778 344.083ZM299.733 327.528C299.823 327.348 300.003 326.699 300.111 326.051 300.219 325.42 300.471 324.61 300.651 324.249 300.831 323.889 301.156 322.934 301.354 322.124 301.552 321.313 301.84 320.467 301.984 320.25 302.128 320.016 302.327 319.35 302.453 318.755 302.561 318.161 302.813 317.368 303.011 317.008 303.191 316.63 303.515 315.675 303.714 314.864 303.93 314.054 304.2 313.225 304.344 313.009 304.47 312.811 304.686 312.108 304.812 311.46 304.921 310.811 305.227 309.964 305.443 309.55 306.001 308.613 306.019 307.767 305.479 307.479 304.957 307.19 293.518 307.334 292.977 307.641 292.545 307.857 292.563 307.893 293.031 310.199 293.194 310.937 293.464 311.838 293.626 312.18 293.806 312.522 294.04 313.297 294.166 313.891 294.292 314.486 294.545 315.315 294.725 315.729 294.923 316.143 295.193 317.008 295.337 317.638 295.481 318.269 295.77 319.152 295.968 319.602 296.166 320.052 296.436 320.989 296.598 321.709 296.742 322.412 296.994 323.241 297.139 323.529 297.283 323.817 297.589 324.79 297.787 325.709 298.147 327.222 298.219 327.366 298.742 327.6 299.48 327.906 299.534 327.906 299.733 327.528Z" fill="#FFFFFF" transform="matrix(1 0 0 -1 0 624)"/><path d="M342.624 343.993C341.471 343.668 340.03 342.624 339.111 341.453 338.48 340.642 338.264 340.156 337.976 338.877 337.616 337.346 337.598 336.805 337.58 313.261 337.562 289.086 337.634 286.096 338.21 284.457 338.733 282.98 340.174 281.43 341.813 280.584 342.84 280.043 343.002 280.025 345.055 280.025 347.181 280.025 347.235 280.025 348.298 280.638 349.739 281.467 350.892 282.655 351.648 284.079L352.261 285.249 352.315 311.892 352.351 338.534 351.811 339.651C351.522 340.264 351.27 340.84 351.27 340.93 351.252 341.218 349.523 342.876 348.658 343.416 348.208 343.686 347.523 343.993 347.163 344.083 346.19 344.299 343.56 344.263 342.624 343.993Z" fill="#FFFFFF" transform="matrix(1 0 0 -1 0 624)"/></g></svg>