<?xml version="1.0" standalone="no"?>
<!DOCTYPE svg PUBLIC "-//W3C//DTD SVG 20010904//EN"
 "http://www.w3.org/TR/2001/REC-SVG-20010904/DTD/svg10.dtd">
<svg version="1.0" xmlns="http://www.w3.org/2000/svg"
 width="3464.000000pt" height="3464.000000pt" viewBox="0 0 3464.000000 3464.000000"
 preserveAspectRatio="xMidYMid meet">

<g transform="translate(0.000000,3464.000000) scale(0.100000,-0.100000)"
fill="#000000" stroke="none">
<path d="M19000 28466 c0 -8 -21 -22 -47 -32 -93 -34 -162 -71 -205 -111 -13
-11 -35 -27 -50 -34 -24 -13 -82 -76 -148 -161 -34 -44 -110 -198 -110 -224 0
-11 -9 -54 -20 -95 -11 -41 -20 -103 -20 -139 0 -74 43 -290 67 -335 8 -16 26
-51 39 -77 51 -103 192 -250 284 -298 14 -7 34 -20 45 -30 11 -10 44 -25 73
-35 99 -32 92 35 92 -851 0 -424 -3 -786 -6 -803 -7 -35 -80 -96 -148 -125
-21 -9 -51 -27 -68 -41 -16 -14 -35 -25 -41 -25 -7 0 -34 -16 -61 -35 -27 -19
-55 -35 -62 -35 -7 0 -25 -11 -41 -24 -15 -13 -49 -33 -75 -46 -26 -12 -52
-28 -59 -36 -6 -8 -17 -14 -24 -14 -7 0 -39 -18 -71 -40 -33 -22 -64 -40 -71
-40 -6 0 -25 -11 -41 -25 -16 -13 -49 -34 -73 -45 -24 -11 -71 -38 -104 -60
-33 -21 -82 -51 -110 -65 -27 -14 -75 -40 -105 -58 -99 -59 -91 53 -90 -1231
l0 -1122 -26 -25 -26 -24 -470 0 c-450 1 -471 2 -484 20 -12 16 -14 206 -14
1181 l0 1162 -35 44 c-43 53 -55 67 -125 149 -52 62 -97 111 -151 167 -64 66
-208 240 -221 267 -13 25 -15 92 -14 421 1 437 -1 425 71 438 38 8 130 59 192
108 94 75 213 206 213 235 0 6 12 28 27 49 14 21 34 68 43 104 10 36 25 85 34
109 22 59 22 276 1 328 -8 20 -22 63 -31 97 -16 63 -68 166 -113 224 -44 58
-174 182 -216 207 -187 112 -346 147 -565 124 -104 -10 -134 -20 -290 -97 -65
-33 -192 -141 -240 -206 -19 -26 -49 -65 -66 -86 -18 -21 -35 -55 -38 -74 -4
-20 -18 -57 -31 -83 -56 -109 -57 -429 -2 -540 13 -26 27 -59 30 -73 7 -29 63
-120 104 -169 103 -124 213 -205 359 -266 24 -10 46 -28 53 -41 8 -17 11 -173
11 -503 l0 -477 43 -50 c46 -54 73 -85 139 -159 24 -27 55 -63 69 -79 13 -16
36 -40 50 -55 15 -14 61 -66 104 -116 42 -49 85 -97 96 -105 50 -40 49 -26 49
-1155 0 -1022 -1 -1053 -19 -1076 l-19 -24 -471 0 c-372 0 -473 3 -483 13 -10
10 -14 241 -18 1177 -5 1156 -5 1164 -26 1192 -11 15 -23 36 -27 45 -3 9 -19
24 -34 34 -15 9 -40 25 -55 35 -20 14 -45 19 -93 19 -58 0 -70 -4 -114 -35
-26 -19 -61 -54 -77 -77 l-29 -41 -3 -1162 -2 -1162 -21 -19 c-20 -18 -44 -19
-479 -19 -451 0 -459 0 -487 21 l-28 21 -5 499 -5 499 -28 50 c-28 51 -60 100
-95 145 -11 14 -29 43 -41 65 -12 22 -32 54 -44 71 -12 18 -30 45 -39 60 -10
16 -30 47 -45 70 -34 50 -62 93 -85 131 -10 15 -35 55 -57 88 -22 33 -45 71
-51 84 -7 16 -11 188 -10 524 0 547 -2 527 58 542 14 3 38 15 53 26 15 10 31
19 36 19 5 0 40 21 78 46 107 70 200 166 243 251 12 23 26 44 32 48 5 3 18 34
29 68 11 34 27 80 37 102 25 57 32 319 10 390 -52 174 -71 212 -167 337 -60
78 -223 218 -254 218 -7 0 -37 13 -68 30 -102 54 -304 73 -486 45 -229 -34
-470 -219 -575 -440 -48 -102 -75 -195 -81 -285 -8 -112 9 -291 30 -323 8 -13
24 -50 35 -82 11 -32 26 -66 34 -74 7 -9 23 -34 34 -56 26 -51 135 -166 197
-208 55 -37 143 -88 200 -115 22 -11 46 -26 52 -34 10 -11 13 -156 15 -585 l3
-570 26 -39 c14 -21 42 -66 64 -99 21 -33 46 -71 56 -85 11 -14 28 -41 38 -60
10 -19 31 -48 45 -65 14 -16 26 -34 26 -39 0 -4 16 -30 35 -56 19 -26 35 -52
35 -58 0 -5 14 -27 30 -48 43 -55 100 -142 100 -153 0 -5 12 -24 27 -41 l26
-32 3 -426 c1 -252 -2 -434 -7 -444 -14 -27 -64 -49 -168 -75 -52 -13 -102
-29 -110 -37 -9 -7 -36 -23 -61 -35 -58 -28 -125 -75 -178 -127 -54 -53 -132
-154 -132 -170 0 -7 -11 -25 -24 -41 -13 -16 -31 -51 -39 -78 -8 -28 -23 -68
-33 -90 -16 -35 -19 -81 -24 -376 -4 -264 -8 -340 -19 -352 -12 -16 -68 -17
-621 -17 l-608 0 -30 25 c-16 13 -35 39 -43 57 -7 18 -27 54 -43 80 -60 92
-86 136 -100 170 -8 19 -21 40 -29 47 -8 6 -21 26 -28 44 -7 18 -28 54 -46 81
-18 26 -33 54 -33 61 0 7 -7 19 -17 26 -9 8 -26 37 -39 64 -12 28 -29 57 -38
64 -9 8 -25 32 -36 55 -11 22 -38 70 -60 106 -21 36 -50 86 -64 111 -13 25
-40 58 -60 72 l-34 27 -507 -1 c-581 0 -556 -4 -586 84 -9 26 -25 60 -36 75
-11 15 -30 46 -41 68 -20 40 -138 164 -204 215 -63 49 -201 110 -298 131 -140
31 -239 34 -335 9 -43 -12 -88 -21 -100 -21 -11 0 -39 -10 -60 -21 -22 -12
-65 -34 -95 -50 -30 -16 -71 -41 -90 -55 -54 -39 -177 -173 -196 -213 -9 -20
-24 -45 -33 -56 -22 -27 -77 -167 -90 -233 -15 -74 -13 -266 3 -332 21 -81 65
-202 80 -220 8 -8 23 -33 34 -55 28 -55 152 -187 214 -227 170 -110 292 -148
483 -148 164 0 267 26 412 103 92 50 197 145 254 233 14 21 38 57 52 79 15 23
34 62 43 88 10 30 28 57 48 72 l33 25 375 0 375 0 40 -29 c22 -16 46 -44 53
-62 7 -19 20 -42 29 -52 20 -24 63 -96 96 -164 15 -29 31 -55 36 -59 5 -3 23
-31 40 -62 38 -70 77 -137 106 -183 13 -18 23 -39 23 -46 0 -6 11 -25 25 -41
14 -17 32 -47 41 -69 9 -21 24 -47 34 -58 11 -11 26 -37 34 -57 9 -20 20 -40
26 -43 6 -4 21 -29 34 -56 13 -27 39 -64 57 -84 l33 -35 737 0 c700 0 737 -1
752 -18 15 -17 17 -65 17 -483 0 -386 -2 -468 -14 -485 -14 -18 -36 -19 -703
-24 l-688 -5 -49 -32 c-102 -67 -140 -197 -84 -291 13 -23 44 -59 68 -80 l44
-37 696 -5 c571 -4 700 -7 713 -19 15 -12 17 -58 17 -478 0 -421 -2 -468 -17
-494 l-17 -29 -1019 0 c-724 0 -1031 3 -1063 11 -38 10 -48 18 -66 53 -11 22
-29 52 -40 65 -10 14 -28 43 -39 65 -11 23 -37 70 -59 106 -22 36 -51 88 -64
117 -14 28 -30 54 -36 58 -6 3 -22 27 -36 53 -14 26 -40 72 -59 102 -19 30
-45 75 -57 100 -13 25 -36 63 -51 85 -15 22 -27 45 -27 51 0 6 -13 28 -30 49
-16 20 -32 46 -36 58 -3 12 -14 31 -24 42 -10 11 -29 40 -42 65 -78 153 -87
161 -194 171 -49 5 -465 8 -924 7 -960 -2 -897 -8 -924 83 -9 29 -22 59 -30
68 -8 9 -24 34 -36 56 -40 72 -134 174 -211 229 -134 97 -377 173 -521 161
-43 -3 -90 -10 -105 -16 -15 -6 -57 -16 -93 -24 -110 -24 -242 -101 -343 -201
-77 -76 -92 -94 -120 -151 -15 -28 -31 -54 -36 -57 -5 -4 -19 -35 -31 -71 -17
-50 -26 -65 -41 -65 -18 0 -19 -10 -19 -234 0 -215 1 -234 18 -238 11 -3 24
-26 36 -64 10 -32 31 -79 47 -103 16 -25 29 -49 29 -54 0 -12 65 -90 120 -144
56 -55 157 -128 190 -138 14 -4 45 -18 68 -32 58 -33 181 -54 317 -54 123 0
269 23 295 46 9 8 39 22 66 31 27 9 60 27 74 39 14 13 39 30 55 38 52 27 176
162 214 232 12 22 26 47 31 55 5 8 19 41 31 73 17 48 27 61 53 72 42 17 1524
22 1587 5 29 -8 45 -20 57 -42 9 -16 29 -46 44 -65 15 -19 30 -44 34 -56 4
-12 19 -40 34 -62 15 -22 46 -74 70 -115 24 -41 54 -91 67 -111 12 -19 23 -40
23 -45 0 -6 16 -33 35 -60 19 -27 35 -54 35 -61 0 -6 11 -25 25 -41 13 -16 33
-50 44 -75 11 -24 25 -48 31 -52 6 -4 20 -28 31 -52 11 -25 31 -59 44 -75 14
-16 25 -34 25 -39 0 -5 16 -32 35 -60 19 -28 35 -57 35 -64 0 -7 10 -25 22
-40 13 -16 32 -47 43 -69 14 -28 30 -43 55 -52 27 -10 305 -13 1197 -13 l1162
-1 13 -22 c19 -33 19 -953 0 -985 l-13 -23 -1195 0 c-892 0 -1201 -3 -1217
-12 -20 -10 -147 -118 -209 -177 -29 -28 -58 -54 -163 -146 -38 -33 -94 -84
-124 -114 -102 -98 -63 -91 -508 -91 -225 0 -402 4 -417 10 -17 6 -29 22 -38
52 -13 46 -58 128 -105 192 -49 67 -176 187 -225 212 -25 13 -49 28 -53 34 -3
5 -32 17 -63 26 -31 9 -74 25 -95 36 -76 38 -384 41 -456 4 -17 -9 -58 -25
-90 -35 -32 -10 -74 -30 -93 -45 -19 -14 -40 -26 -46 -26 -19 0 -208 -193
-241 -245 -36 -58 -40 -67 -80 -160 -63 -149 -63 -420 -1 -567 17 -40 38 -86
47 -103 9 -16 25 -46 35 -65 10 -19 50 -69 91 -110 88 -91 112 -112 154 -134
18 -9 49 -27 69 -41 20 -14 43 -25 51 -25 8 0 49 -14 91 -31 74 -30 82 -32
232 -32 l155 -1 110 39 c61 21 128 51 149 67 21 15 43 28 49 28 20 0 173 144
182 172 3 9 16 23 29 32 14 8 30 32 36 53 7 21 21 47 31 58 9 11 27 45 39 76
14 40 27 59 43 63 12 3 237 6 499 6 l478 0 31 28 c18 15 46 40 63 57 17 16 43
39 58 50 23 17 70 59 263 234 115 104 185 160 214 169 25 9 328 12 1127 12
l1093 0 16 -30 c13 -25 15 -96 15 -485 0 -295 -4 -463 -10 -476 -10 -19 -34
-19 -1148 -20 -625 0 -1169 -3 -1207 -7 -83 -9 -125 -36 -177 -117 -29 -43
-33 -58 -32 -112 0 -48 5 -68 20 -85 11 -13 28 -36 38 -51 9 -15 25 -31 34
-34 9 -3 27 -15 40 -27 l24 -21 1191 -3 c1088 -2 1192 -4 1209 -19 17 -15 18
-45 18 -482 0 -406 -2 -469 -16 -489 l-15 -22 -532 0 -532 0 -41 -28 c-23 -15
-55 -35 -70 -44 -16 -10 -49 -31 -74 -48 -25 -17 -58 -38 -74 -48 -16 -9 -48
-32 -72 -50 -25 -17 -48 -32 -54 -32 -5 0 -25 -13 -43 -30 -19 -16 -39 -30
-44 -30 -6 0 -30 -15 -54 -32 -24 -18 -56 -40 -70 -48 -15 -8 -59 -37 -99 -64
-42 -29 -88 -52 -113 -56 -57 -9 -902 -11 -952 -2 -30 5 -43 14 -54 37 -9 17
-25 46 -37 65 -12 19 -25 46 -29 60 -13 42 -139 204 -174 224 -9 5 -32 23 -52
40 -39 33 -122 86 -134 86 -4 0 -44 17 -89 37 l-81 38 -195 0 c-191 0 -196 -1
-250 -27 -30 -14 -74 -31 -96 -37 -23 -6 -48 -18 -55 -27 -7 -8 -34 -26 -59
-39 -47 -24 -168 -140 -214 -205 -57 -80 -116 -215 -131 -300 -28 -160 -9
-412 37 -490 11 -19 27 -52 34 -74 8 -21 26 -53 41 -72 111 -137 191 -212 270
-252 23 -12 44 -26 48 -32 3 -5 32 -17 63 -26 31 -8 80 -25 107 -37 44 -19 68
-22 205 -22 138 0 161 3 205 22 28 12 69 27 91 33 23 5 56 20 75 33 19 12 45
27 59 34 82 37 274 241 295 313 4 14 17 41 29 60 11 19 28 49 36 65 l15 30
575 5 575 5 70 43 c87 54 135 86 157 106 10 8 39 27 65 41 49 26 97 58 144 94
14 11 42 28 62 37 20 10 37 21 37 26 0 4 22 19 49 33 27 13 52 29 56 35 3 6
25 20 48 31 23 12 51 30 62 40 19 17 51 18 562 21 l542 3 21 -38 c29 -50 176
-204 214 -224 17 -8 40 -23 51 -33 11 -10 57 -34 103 -55 107 -48 220 -65 429
-65 l162 0 16 -30 c13 -25 15 -108 15 -603 0 -385 -4 -584 -11 -605 -8 -22
-24 -37 -57 -53 -26 -12 -55 -29 -65 -38 -24 -20 -99 -64 -162 -95 -28 -13
-56 -31 -63 -39 -7 -8 -27 -21 -45 -28 -18 -7 -54 -28 -81 -46 -26 -18 -53
-33 -58 -33 -5 0 -24 -10 -41 -22 -18 -13 -49 -31 -70 -40 -21 -10 -50 -27
-65 -39 -44 -34 -135 -89 -148 -89 -7 0 -25 -11 -41 -24 -15 -13 -49 -34 -75
-46 -28 -13 -56 -35 -68 -55 -19 -31 -20 -48 -20 -534 0 -557 0 -559 -62 -585
-134 -56 -187 -91 -301 -196 -114 -105 -206 -273 -226 -413 -15 -105 -13 -266
3 -357 15 -80 74 -213 128 -289 17 -24 65 -77 105 -117 90 -89 137 -119 292
-184 147 -63 418 -63 562 1 37 16 72 29 77 29 5 0 33 16 61 35 28 19 54 35 58
35 4 0 19 11 33 25 114 113 138 138 157 167 13 18 32 53 44 78 12 25 29 54 39
65 10 11 27 63 39 115 11 52 25 111 31 130 17 58 12 131 -19 267 -41 177 -100
289 -212 402 -73 72 -124 113 -176 139 -23 12 -44 26 -48 32 -3 5 -25 15 -48
21 -50 13 -66 25 -78 58 -5 13 -10 193 -11 400 -1 367 0 377 21 412 13 23 37
43 64 54 23 11 50 26 60 34 21 17 81 53 169 100 31 17 59 35 62 40 4 5 30 22
59 36 93 47 165 89 247 145 15 10 48 30 75 44 28 15 79 45 115 66 36 21 86 50
111 64 26 14 58 39 73 56 l26 32 0 713 c0 687 1 714 19 736 l19 24 449 3 c246
2 458 0 470 -3 53 -13 53 -13 53 -700 l0 -635 35 -70 c34 -67 39 -72 107 -106
81 -41 100 -40 185 2 55 28 106 82 116 125 4 14 7 314 7 668 1 407 5 653 12
672 7 21 19 31 47 39 23 6 209 10 465 10 456 -1 470 -2 496 -49 7 -13 10 -355
10 -1026 0 -1097 3 -1045 -57 -1075 -15 -8 -50 -29 -77 -47 -26 -18 -54 -33
-61 -33 -7 0 -19 -7 -26 -17 -8 -9 -34 -25 -58 -36 -25 -11 -63 -33 -84 -48
-22 -16 -45 -29 -52 -29 -7 0 -29 -13 -50 -30 -20 -16 -46 -32 -58 -36 -12 -4
-35 -17 -52 -29 -16 -13 -40 -26 -52 -29 -12 -4 -38 -20 -58 -36 -21 -17 -44
-30 -51 -30 -7 0 -26 -11 -42 -25 -16 -13 -50 -33 -75 -44 -24 -11 -48 -25
-52 -31 -4 -7 -31 -23 -60 -36 -29 -12 -56 -28 -60 -34 -3 -5 -23 -17 -43 -26
-20 -8 -46 -23 -57 -33 -11 -10 -39 -28 -63 -40 -25 -13 -47 -32 -52 -47 -6
-16 -10 -378 -10 -933 0 -639 -3 -917 -11 -940 -11 -32 -40 -53 -94 -65 -16
-4 -43 -18 -60 -30 -16 -12 -44 -28 -61 -35 -34 -13 -197 -172 -238 -231 -58
-83 -107 -203 -122 -300 -38 -255 3 -457 130 -642 86 -125 244 -248 370 -288
22 -7 41 -20 43 -31 5 -18 19 -19 263 -19 244 0 258 1 263 19 2 11 21 24 43
31 106 34 271 162 365 282 33 41 119 217 119 242 0 10 9 57 21 105 16 66 20
104 16 166 -7 104 -47 252 -90 337 -73 144 -205 284 -322 343 -22 12 -49 26
-60 32 -11 7 -41 21 -66 31 -38 16 -47 25 -52 52 -10 45 -8 1558 1 1600 8 36
33 56 154 119 31 17 60 35 63 41 4 6 30 22 58 36 29 13 81 42 117 64 36 22 84
49 106 60 23 11 46 26 53 33 6 8 30 22 53 32 24 10 51 26 61 34 20 17 81 53
162 96 28 15 59 35 70 45 11 10 37 23 57 29 20 7 42 19 49 28 7 8 36 25 65 38
28 12 55 28 58 34 4 6 25 20 47 31 48 25 70 72 67 144 -2 28 -2 538 0 1133 l2
1081 26 31 26 31 432 0 c237 -1 448 -3 469 -7 71 -11 67 70 67 -1223 0 -853 3
-1167 11 -1183 11 -21 151 -185 213 -250 16 -18 50 -54 73 -82 82 -94 158
-179 186 -208 57 -60 56 -52 57 -483 l1 -399 -26 -22 c-14 -13 -34 -23 -44
-23 -10 0 -30 -9 -44 -20 -14 -11 -43 -28 -64 -36 -85 -36 -248 -197 -298
-294 -10 -19 -26 -45 -36 -58 -10 -13 -20 -37 -24 -55 -4 -18 -18 -67 -32
-110 -23 -71 -25 -89 -21 -226 2 -93 7 -153 15 -162 6 -8 19 -43 28 -79 9 -36
24 -76 34 -90 10 -14 28 -43 40 -65 50 -92 156 -203 256 -270 74 -49 202 -102
275 -114 146 -24 391 -8 459 29 20 11 56 29 81 40 198 89 360 283 431 515 35
114 29 399 -10 475 -10 19 -26 59 -35 88 -10 29 -28 65 -41 80 -12 15 -25 36
-29 47 -7 24 -160 185 -175 185 -6 0 -18 9 -28 19 -10 11 -67 44 -127 74 -60
31 -113 62 -117 69 -5 7 -9 225 -9 485 0 290 -4 482 -10 498 -9 24 -30 50 -86
108 -12 12 -90 100 -173 196 -84 96 -163 186 -176 200 -14 14 -38 41 -54 58
-17 18 -35 50 -40 70 -14 48 -15 2131 -2 2166 23 60 0 57 506 57 l464 0 16
-29 c13 -25 15 -180 17 -1193 l3 -1165 30 -43 c17 -24 52 -61 78 -82 46 -36
53 -38 116 -38 59 0 74 4 115 31 25 17 61 52 79 78 l32 46 5 1177 c5 1113 6
1178 23 1195 16 17 52 18 482 21 l465 3 20 -33 c19 -32 20 -50 20 -516 l0
-483 26 -62 c15 -34 36 -74 48 -88 21 -27 64 -93 103 -161 12 -21 32 -51 45
-67 13 -16 31 -41 40 -57 10 -16 31 -49 48 -74 16 -25 43 -68 60 -97 17 -28
38 -57 45 -63 8 -7 15 -17 15 -22 0 -5 18 -35 40 -67 l40 -56 0 -508 c0 -279
-2 -512 -5 -517 -3 -5 -45 -29 -93 -52 -48 -23 -115 -62 -150 -86 -66 -46
-185 -171 -214 -223 -9 -17 -23 -38 -32 -48 -15 -16 -51 -111 -82 -216 -28
-93 -17 -380 16 -420 4 -5 16 -37 25 -70 10 -33 25 -69 34 -80 10 -11 30 -42
45 -68 52 -92 221 -243 304 -274 18 -7 46 -21 62 -33 26 -19 85 -32 262 -61
102 -16 292 18 408 74 193 93 363 272 419 443 11 32 27 79 37 104 14 36 17 78
17 205 1 151 -1 163 -25 215 -14 31 -31 79 -37 107 -7 29 -23 61 -37 74 -13
12 -24 28 -24 34 0 44 -261 295 -308 295 -16 0 -117 54 -144 78 -17 14 -18 54
-18 580 l0 564 -27 45 c-16 24 -45 67 -65 96 -21 28 -38 56 -38 61 0 5 -14 27
-30 50 -52 69 -79 110 -92 136 -15 29 -93 149 -111 169 -6 8 -21 31 -32 51
-26 47 -78 127 -104 162 -20 25 -21 37 -21 410 0 210 3 420 7 466 l6 83 76 35
c42 20 94 42 116 50 22 8 51 25 65 38 14 12 41 33 61 44 79 48 223 234 259
337 10 28 25 66 33 85 18 42 38 199 36 283 -1 34 4 74 11 89 l13 28 565 2 566
3 42 -32 c23 -18 44 -43 48 -56 3 -13 19 -41 36 -62 16 -21 30 -44 30 -51 0
-7 11 -26 25 -42 14 -17 34 -51 45 -76 12 -25 25 -48 31 -52 6 -4 22 -30 35
-59 12 -29 28 -56 34 -60 7 -4 21 -28 32 -54 10 -25 27 -55 37 -66 10 -11 40
-60 66 -110 27 -49 59 -103 72 -118 13 -16 23 -34 23 -40 0 -7 16 -34 35 -61
19 -27 35 -55 35 -63 0 -7 16 -31 36 -53 l36 -39 533 -3 c599 -3 567 1 580
-79 4 -21 20 -55 35 -75 16 -19 32 -45 36 -57 18 -57 207 -244 264 -262 14 -4
39 -18 55 -31 17 -12 55 -29 85 -37 30 -9 75 -24 100 -33 35 -14 77 -18 195
-18 136 -1 155 1 200 22 27 13 70 27 94 33 45 10 146 65 191 105 14 12 32 25
41 30 23 12 148 162 183 220 17 26 38 70 47 98 9 28 25 67 36 86 16 31 18 60
18 230 0 181 -2 198 -22 237 -12 22 -26 58 -32 80 -10 37 -52 109 -108 187
-69 94 -250 234 -333 256 -25 7 -63 22 -85 34 -37 19 -55 21 -235 21 -180 0
-198 -2 -235 -21 -22 -12 -65 -29 -96 -38 -31 -9 -62 -23 -70 -32 -7 -8 -31
-25 -53 -36 -48 -24 -231 -207 -242 -240 -3 -13 -16 -36 -27 -53 -12 -16 -31
-56 -42 -90 -17 -50 -26 -62 -51 -70 -19 -6 -185 -10 -412 -10 -434 0 -409 -5
-463 90 -67 120 -93 164 -129 225 -21 36 -50 86 -64 112 -14 26 -31 50 -37 54
-6 3 -22 30 -35 59 -12 29 -27 56 -33 59 -5 4 -21 30 -35 59 -15 28 -42 77
-61 107 -19 30 -48 80 -65 110 -17 30 -45 79 -61 108 -17 29 -47 63 -67 77
l-37 25 -692 0 -693 0 -16 25 c-14 22 -16 76 -15 497 1 327 5 475 12 485 9 10
129 13 638 13 344 1 645 5 668 9 66 13 126 68 153 141 29 77 28 91 -8 171 -29
64 -32 67 -104 103 l-73 36 -631 0 c-477 0 -633 3 -642 12 -9 9 -12 131 -12
489 0 431 2 478 17 490 23 20 1970 26 2028 7 29 -10 44 -23 61 -55 12 -23 31
-54 43 -69 12 -15 21 -32 21 -38 0 -6 17 -37 38 -68 64 -99 91 -143 102 -172
6 -16 22 -42 35 -58 14 -16 25 -35 25 -42 0 -7 16 -35 35 -62 19 -27 35 -53
35 -58 0 -5 11 -23 24 -41 13 -17 31 -48 40 -69 9 -21 27 -51 41 -68 14 -16
25 -35 25 -42 0 -7 13 -30 30 -52 16 -21 30 -44 30 -50 0 -6 16 -33 35 -60 19
-27 35 -53 35 -58 0 -5 23 -44 51 -87 37 -55 60 -81 82 -88 20 -8 328 -11 938
-11 672 0 915 -3 934 -12 18 -8 30 -25 40 -62 9 -28 29 -71 45 -95 17 -24 30
-49 30 -55 0 -5 11 -22 25 -36 173 -177 186 -189 237 -212 22 -10 50 -26 64
-37 14 -11 43 -22 65 -26 23 -4 62 -16 88 -28 86 -38 365 -41 422 -4 13 9 49
22 79 30 30 8 77 28 104 46 28 17 55 31 62 31 16 0 234 217 234 234 0 6 15 35
34 64 18 29 39 73 46 99 9 29 20 48 32 51 17 4 18 20 18 247 0 227 -1 243 -18
247 -12 3 -23 22 -32 51 -26 95 -138 246 -255 345 -57 47 -138 95 -202 119
-38 13 -84 31 -103 38 -86 32 -392 26 -446 -10 -12 -7 -46 -21 -77 -30 -31 -9
-66 -24 -79 -34 -13 -10 -42 -28 -65 -41 -24 -13 -43 -27 -43 -31 0 -4 -13
-15 -29 -26 -32 -20 -171 -178 -171 -194 0 -5 -10 -23 -22 -40 -13 -17 -32
-56 -43 -87 -13 -38 -28 -61 -45 -69 -20 -10 -194 -12 -829 -10 -791 2 -804 2
-817 22 -45 64 -82 123 -88 143 -4 12 -17 34 -30 50 -12 15 -28 43 -36 62 -7
19 -21 44 -30 55 -10 11 -28 38 -39 60 -12 22 -40 69 -61 105 -21 36 -53 90
-70 120 -17 30 -49 84 -70 120 -22 36 -45 76 -52 90 -7 14 -27 47 -45 74 -18
26 -33 52 -33 57 0 5 -16 32 -35 60 -19 28 -35 57 -35 63 0 7 -9 21 -19 33
-11 11 -31 43 -45 71 -19 38 -33 52 -53 56 -16 4 -535 7 -1155 9 -1014 2
-1129 4 -1143 18 -14 14 -16 70 -16 487 1 361 4 476 13 492 13 20 20 20 1161
20 l1148 0 47 27 c26 15 59 39 74 53 23 22 84 76 128 115 8 7 67 59 130 115
63 56 155 135 203 176 l88 74 379 0 c208 0 390 -4 403 -9 17 -7 39 -39 77
-118 56 -112 144 -228 207 -271 18 -12 33 -26 33 -30 0 -4 15 -16 33 -26 17
-11 41 -27 52 -36 11 -9 36 -23 55 -30 19 -7 58 -24 87 -37 86 -40 298 -55
446 -32 41 6 103 26 144 45 39 19 75 34 80 34 7 1 61 39 160 114 61 48 174
198 198 266 7 19 22 51 33 70 54 93 54 451 1 555 -12 21 -29 62 -40 91 -11 28
-28 59 -39 69 -11 10 -20 24 -20 31 0 21 -143 169 -182 190 -16 8 -28 18 -28
23 0 12 -176 97 -220 106 -19 4 -61 16 -94 26 -64 21 -214 26 -276 9 -19 -5
-73 -18 -120 -30 -47 -11 -101 -32 -121 -45 -19 -14 -39 -25 -45 -25 -5 0 -39
-22 -75 -48 -80 -58 -201 -190 -230 -252 -12 -25 -27 -52 -34 -60 -6 -8 -20
-37 -29 -63 -12 -33 -26 -51 -43 -58 -14 -5 -224 -9 -485 -9 -397 0 -464 -2
-493 -16 -29 -14 -173 -132 -247 -203 -30 -30 -50 -47 -207 -186 -62 -55 -132
-112 -155 -127 l-41 -28 -1062 0 -1062 0 -15 22 c-14 20 -16 83 -16 493 0 391
2 474 14 491 14 19 41 19 1173 24 846 4 1165 8 1183 17 37 16 97 82 115 125
20 49 19 116 -3 154 -51 92 -61 101 -135 128 l-72 26 -1120 0 c-1072 0 -1121
1 -1138 19 -17 17 -18 45 -17 492 0 381 3 477 14 487 11 11 105 14 492 13 274
-1 493 3 512 8 18 5 64 31 103 58 39 26 83 54 97 62 15 7 38 24 52 36 14 13
44 32 67 44 23 11 45 25 48 31 3 6 25 20 48 32 23 11 53 29 67 40 41 32 93 66
130 87 19 10 49 31 65 45 17 14 35 26 40 26 6 0 27 11 47 25 l37 25 486 0 486
0 23 -25 c13 -13 44 -67 70 -120 26 -52 51 -95 55 -95 3 0 14 -12 23 -27 22
-38 156 -173 199 -200 61 -40 181 -94 243 -109 170 -41 409 -27 536 32 133 62
169 86 257 170 91 88 110 115 168 231 36 71 51 115 66 199 24 136 24 187 -1
329 -22 119 -61 213 -133 315 -32 45 -143 157 -195 197 -99 76 -339 153 -472
153 -35 0 -118 -12 -184 -26 -123 -27 -196 -60 -306 -137 -45 -31 -170 -156
-170 -169 0 -3 -11 -20 -25 -36 -14 -16 -45 -70 -71 -120 -25 -50 -52 -96 -60
-103 -11 -9 -156 -12 -572 -13 l-557 -1 -55 -28 c-30 -15 -86 -50 -125 -78
-38 -27 -79 -54 -91 -58 -11 -5 -33 -20 -50 -34 -16 -14 -46 -32 -67 -40 -20
-9 -37 -21 -37 -27 0 -6 -15 -17 -34 -25 -18 -8 -47 -25 -62 -38 -16 -13 -46
-32 -66 -42 -21 -9 -38 -21 -38 -27 0 -5 -17 -17 -38 -26 -20 -9 -55 -30 -76
-47 l-39 -30 -446 0 -445 0 -12 25 c-7 14 -17 48 -22 75 -18 86 -67 207 -114
281 -67 104 -222 255 -295 286 -15 7 -39 20 -53 29 -50 33 -227 72 -364 79
-117 6 -131 9 -147 29 -17 21 -18 58 -18 584 0 466 3 565 15 588 15 29 73 79
92 79 6 0 23 11 39 24 15 13 49 32 74 43 26 12 49 25 53 31 3 6 30 22 59 36
28 15 77 42 107 61 52 32 94 56 221 128 32 18 65 39 75 48 11 9 33 21 51 28
18 7 38 20 45 28 7 8 35 26 63 39 94 46 150 83 167 111 16 26 18 70 18 538 0
479 1 512 19 538 22 34 47 52 85 61 85 21 277 176 354 286 40 58 110 203 122
255 6 22 13 94 16 160 8 146 -8 279 -41 350 -13 28 -31 66 -40 85 -28 64 -91
146 -165 215 -89 84 -115 105 -126 105 -7 0 -25 11 -41 24 -15 13 -48 30 -73
39 -25 8 -70 25 -100 37 -108 43 -402 37 -483 -10 -18 -10 -46 -21 -63 -25
-31 -6 -105 -48 -177 -102 -92 -67 -188 -176 -223 -253 -9 -19 -25 -47 -35
-62 -22 -30 -70 -226 -76 -308 -7 -92 39 -327 75 -380 9 -14 25 -42 34 -64 10
-21 30 -54 46 -73 54 -69 174 -183 220 -209 26 -15 54 -33 62 -40 8 -7 40 -21
70 -31 42 -14 59 -26 74 -52 18 -32 19 -52 17 -408 -3 -422 -4 -433 -68 -460
-20 -8 -51 -25 -67 -38 -17 -12 -41 -26 -53 -29 -12 -4 -38 -20 -58 -36 -20
-16 -46 -32 -58 -36 -12 -3 -31 -15 -42 -25 -11 -10 -38 -25 -60 -34 -21 -9
-53 -28 -70 -41 -18 -13 -36 -24 -41 -24 -5 0 -31 -16 -58 -35 -27 -19 -55
-35 -62 -35 -7 0 -26 -11 -42 -25 -17 -14 -47 -32 -69 -41 -21 -9 -51 -27 -66
-40 -16 -13 -35 -24 -42 -24 -7 0 -27 -11 -43 -25 -17 -14 -45 -32 -64 -39
-18 -8 -53 -31 -76 -51 l-42 -37 0 -708 c0 -706 0 -707 -21 -726 -20 -18 -43
-19 -484 -19 l-463 0 -27 25 -27 25 4 630 4 630 -33 68 c-33 66 -37 70 -101
100 -74 33 -93 35 -167 11 -45 -15 -88 -49 -135 -108 -13 -16 -16 -113 -20
-685 l-5 -666 -30 -14 c-46 -23 -885 -28 -937 -7 -20 9 -39 19 -42 24 -3 5 -6
456 -7 1004 -1 985 -1 995 19 1035 13 25 33 45 52 53 17 7 47 26 67 41 20 16
41 29 48 29 7 0 24 9 39 21 15 12 53 34 86 50 32 15 61 33 65 39 3 6 22 17 42
25 19 8 48 26 65 40 16 14 35 25 42 25 8 0 25 9 40 21 15 12 53 35 84 51 107
56 144 77 161 91 9 8 39 27 66 41 28 15 75 42 105 61 30 19 76 45 102 59 45
25 99 58 146 91 l22 16 0 934 0 933 25 31 c15 18 46 36 78 47 29 9 65 28 80
40 16 13 32 24 36 24 14 0 125 93 172 145 61 67 82 99 135 202 71 138 89 301
59 509 -17 115 -51 197 -126 310 -29 43 -186 196 -228 221 -14 9 -42 26 -61
39 -19 12 -62 30 -94 40 -38 12 -61 25 -64 36 -4 17 -23 18 -233 18 -191 0
-229 -2 -229 -14z m297 -445 c111 -16 236 -115 270 -214 43 -123 44 -141 18
-243 -27 -108 -61 -156 -155 -219 -69 -46 -120 -58 -233 -53 -81 3 -99 7 -142
33 -72 44 -134 115 -171 197 -45 98 -46 163 -4 253 17 35 30 68 30 73 0 13 93
112 105 112 5 0 26 12 46 26 22 15 61 29 91 34 74 11 76 11 145 1z m-3206
-931 c45 -13 161 -124 204 -195 28 -47 30 -57 30 -151 0 -92 -2 -104 -26 -140
-14 -22 -29 -49 -33 -61 -8 -24 -87 -98 -141 -131 -91 -55 -232 -57 -329 -3
-82 45 -89 50 -133 106 -55 70 -54 69 -69 153 -17 101 1 215 43 270 15 19 33
44 38 53 17 29 131 99 177 109 51 11 187 5 239 -10z m6022 -859 c49 -12 125
-65 175 -122 108 -122 107 -346 0 -469 -51 -59 -137 -117 -188 -127 -42 -9
-151 -9 -200 0 -84 16 -196 118 -238 215 -48 114 -48 176 0 287 29 65 109 165
132 165 5 0 19 9 30 19 12 11 37 24 56 29 44 13 183 14 233 3z m-8932 -114
c85 -30 148 -83 200 -171 43 -71 43 -71 43 -171 0 -102 -5 -121 -54 -204 -52
-91 -187 -170 -305 -178 -66 -4 -74 -2 -150 35 -44 22 -96 55 -115 74 -32 30
-47 52 -89 127 -19 34 -26 174 -13 238 22 102 129 221 217 242 28 6 57 16 65
21 28 18 132 11 201 -13z m-4356 -4126 c115 -36 199 -91 240 -157 11 -17 28
-42 37 -55 24 -33 36 -131 28 -215 -13 -133 -115 -254 -250 -294 -95 -29 -148
-29 -235 0 -98 32 -175 103 -225 207 -16 33 -20 62 -21 140 0 109 9 149 43
194 101 136 270 215 383 180z m17067 -20 c26 -11 52 -21 58 -21 7 0 43 -30 81
-67 51 -49 73 -78 84 -112 8 -25 20 -64 28 -86 32 -89 -18 -236 -112 -331 -55
-55 -68 -63 -148 -87 -48 -15 -97 -27 -107 -27 -11 0 -58 12 -105 26 -77 24
-92 33 -148 88 -47 46 -69 79 -92 133 -40 94 -41 152 -1 257 45 121 129 198
270 247 40 14 141 3 192 -20z m-7102 -193 c2938 -3 2658 5 2790 -82 83 -55
136 -118 186 -221 l39 -80 0 -4065 0 -4065 -35 -75 c-19 -41 -49 -94 -67 -118
-38 -50 -119 -122 -137 -122 -7 0 -21 -8 -30 -19 -44 -48 164 -46 -4191 -46
-3866 0 -4082 1 -4115 17 -93 47 -130 73 -186 134 -48 51 -70 86 -100 157
l-39 92 0 4050 0 4050 23 40 c12 22 27 56 32 75 12 44 111 154 181 201 53 36
182 75 269 81 19 2 652 2 1405 1 754 -2 2542 -4 3975 -5z m-11667 -2589 c100
-43 200 -153 222 -244 14 -61 6 -195 -15 -239 -54 -111 -132 -180 -242 -212
-45 -13 -93 -24 -106 -24 -43 0 -193 51 -210 72 -10 11 -30 26 -45 34 -16 9
-34 27 -40 42 -7 15 -24 47 -39 72 -54 93 -46 250 18 348 49 72 92 110 173
149 94 45 184 46 284 2z m19778 -132 c158 -76 230 -212 208 -392 -13 -103 -29
-137 -97 -207 -80 -84 -196 -119 -327 -98 -94 15 -113 24 -181 83 -34 31 -62
69 -87 119 -34 68 -37 80 -37 161 0 82 3 93 35 155 45 85 94 135 170 174 113
58 200 60 316 5z m-18870 -3141 c61 -28 98 -54 136 -97 21 -23 40 -47 42 -53
2 -6 15 -29 30 -50 24 -36 26 -47 26 -146 0 -100 -2 -109 -27 -146 -16 -22
-28 -46 -28 -53 0 -16 -88 -100 -135 -129 -56 -34 -117 -45 -215 -40 -83 5
-91 8 -154 49 -81 53 -144 133 -164 209 -16 60 -12 203 7 252 29 77 165 198
244 219 48 12 199 3 238 -15z m19830 -162 c134 -92 186 -214 162 -377 -15
-103 -71 -184 -180 -257 -57 -39 -128 -54 -221 -47 -56 4 -83 12 -113 31 -21
14 -42 26 -47 26 -13 0 -97 92 -130 143 -36 57 -48 127 -38 225 10 96 67 185
159 248 85 58 108 64 235 60 l104 -4 69 -48z m-18861 -2734 c68 -20 167 -118
212 -210 26 -55 31 -77 31 -142 0 -42 -4 -82 -10 -90 -5 -7 -18 -35 -28 -63
-22 -58 -84 -125 -165 -176 -54 -34 -56 -34 -170 -34 -115 0 -115 0 -175 37
-92 56 -140 111 -171 198 -37 101 -37 173 -1 264 16 38 39 80 52 92 14 13 25
27 25 33 0 5 18 20 40 32 22 13 40 26 40 31 0 12 46 29 105 38 55 9 166 4 215
-10z m16987 6 c67 -18 154 -85 205 -158 33 -46 42 -69 50 -132 26 -179 -34
-299 -199 -401 -46 -29 -53 -30 -163 -30 -110 0 -117 1 -163 30 -65 40 -119
91 -164 156 l-38 54 0 120 0 120 47 72 c61 92 138 152 217 169 76 17 146 17
208 0z m-4078 -3820 c66 -22 89 -37 144 -93 23 -22 62 -80 79 -113 18 -37 17
-248 -2 -281 -46 -79 -59 -96 -98 -133 -56 -52 -167 -97 -247 -99 -47 -2 -76
5 -130 28 -131 55 -219 158 -238 278 -14 91 2 195 37 242 14 18 26 37 26 41 0
5 23 30 51 57 46 44 113 77 204 100 34 9 96 -1 174 -27z m-8983 -86 c55 -13
142 -67 185 -115 20 -22 50 -71 68 -110 27 -59 32 -81 32 -143 0 -101 -46
-198 -128 -272 -85 -76 -108 -84 -243 -84 -123 0 -147 6 -222 62 -75 55 -114
114 -138 212 -13 54 -20 101 -16 117 27 108 48 162 81 197 19 21 35 42 35 46
0 4 17 16 38 25 20 10 50 27 66 38 50 35 156 47 242 27z m6110 -895 c82 -40
176 -134 195 -195 18 -60 22 -169 9 -241 -13 -73 -27 -95 -120 -186 -71 -69
-197 -97 -323 -73 -54 10 -78 21 -132 63 -233 179 -199 494 68 633 55 28 72
32 146 33 77 1 90 -2 157 -34z m-3350 -884 c61 -12 148 -63 196 -117 45 -49
95 -157 104 -222 14 -109 -67 -263 -183 -349 -39 -29 -100 -43 -193 -43 -138
0 -177 17 -276 120 -48 50 -55 63 -80 150 l-26 96 22 79 c28 100 38 119 92
175 99 102 208 137 344 111z"/>
<path d="M14195 21156 c-63 -8 -116 -20 -140 -33 -22 -12 -65 -33 -95 -47 -75
-36 -130 -77 -203 -152 -88 -91 -112 -123 -141 -185 -15 -29 -33 -65 -41 -79
-8 -14 -25 -76 -39 -138 l-26 -113 0 -3086 0 -3087 26 -106 c14 -58 44 -143
66 -190 41 -83 141 -214 197 -255 14 -10 30 -25 34 -32 4 -7 30 -24 57 -38 27
-14 51 -29 54 -34 4 -5 29 -17 58 -27 28 -9 65 -25 82 -35 20 -11 69 -22 135
-28 70 -8 1086 -11 3165 -11 3337 0 3142 -3 3286 56 140 58 277 161 362 274
41 54 118 194 118 213 0 8 12 50 28 93 l27 79 3 3065 c2 1917 -1 3095 -7 3145
-13 106 -51 232 -98 325 -46 90 -56 103 -159 205 -88 86 -124 113 -194 145
-25 12 -64 30 -86 41 -23 10 -63 24 -90 31 -72 18 -6236 21 -6379 4z m6385
-375 c118 -61 233 -183 246 -260 3 -20 13 -56 22 -81 16 -42 17 -271 19 -3073
2 -1785 -1 -3052 -7 -3085 -20 -125 -43 -190 -92 -254 -55 -72 -119 -124 -203
-164 l-80 -39 -3125 0 -3125 0 -45 22 c-25 12 -61 29 -80 37 -95 39 -200 172
-236 298 l-24 83 0 3051 0 3052 23 89 c26 101 60 162 129 233 51 54 162 116
229 129 24 5 1442 8 3155 7 l3110 -1 84 -44z"/>
<path d="M16475 19101 c-84 -13 -261 -107 -339 -179 -41 -39 -132 -163 -141
-192 -4 -14 -17 -43 -30 -65 -13 -22 -28 -67 -34 -100 -6 -32 -20 -76 -30 -96
-11 -21 -25 -66 -31 -101 -6 -35 -22 -88 -35 -118 -13 -30 -29 -82 -36 -115
-6 -33 -19 -76 -29 -95 -10 -19 -23 -62 -30 -95 -6 -33 -23 -87 -36 -120 -13
-33 -28 -85 -35 -115 -6 -30 -20 -72 -30 -93 -11 -20 -26 -72 -35 -115 -8 -42
-24 -95 -34 -118 -11 -22 -26 -73 -35 -112 -8 -40 -24 -89 -34 -110 -11 -21
-25 -67 -31 -102 -6 -35 -20 -80 -30 -99 -9 -20 -25 -69 -34 -110 -9 -40 -25
-90 -36 -110 -10 -20 -24 -66 -30 -102 -6 -35 -20 -83 -30 -105 -10 -23 -25
-74 -34 -114 -9 -40 -25 -89 -35 -109 -10 -20 -26 -74 -36 -121 -10 -46 -27
-102 -37 -123 -17 -31 -20 -56 -19 -137 1 -94 2 -102 38 -166 50 -92 104 -143
194 -187 70 -34 82 -37 166 -37 85 0 96 2 160 36 124 65 203 166 229 293 9 41
22 87 29 101 8 15 21 64 31 111 9 46 24 102 34 124 10 22 23 67 30 100 6 33
16 75 22 93 19 61 24 62 540 62 403 0 466 -2 486 -16 12 -8 22 -23 22 -32 0
-10 9 -36 20 -57 12 -22 29 -79 40 -127 10 -48 26 -100 34 -117 9 -17 23 -62
31 -101 8 -39 21 -83 29 -98 8 -15 22 -57 31 -92 9 -35 29 -79 43 -98 40 -50
114 -122 126 -122 5 0 28 -12 50 -27 37 -26 47 -28 164 -32 l124 -3 71 37
c111 58 194 153 218 248 19 77 7 229 -24 307 -14 36 -33 96 -41 133 -9 37 -23
81 -31 97 -8 16 -24 67 -35 115 -11 47 -26 96 -34 108 -8 12 -20 49 -26 82 -7
33 -23 85 -36 116 -13 31 -30 88 -38 127 -8 39 -21 81 -30 94 -8 13 -24 61
-35 108 -11 47 -27 99 -36 116 -8 17 -20 58 -26 90 -6 32 -19 75 -30 96 -10
20 -28 76 -39 123 -11 47 -27 99 -35 114 -8 16 -22 62 -31 102 -9 41 -24 90
-34 109 -10 19 -23 62 -30 95 -7 33 -22 85 -35 115 -13 30 -28 82 -35 115 -7
33 -21 77 -31 97 -11 21 -26 69 -34 108 -8 39 -22 84 -30 100 -8 16 -22 58
-30 92 -40 172 -173 343 -349 445 -12 7 -55 27 -96 44 -71 30 -83 32 -215 35
-77 1 -162 -1 -190 -5z m164 -919 c5 -10 15 -46 21 -82 6 -35 20 -80 30 -100
10 -20 28 -73 39 -118 11 -45 27 -92 35 -104 8 -13 19 -50 26 -83 6 -33 20
-77 31 -97 10 -21 28 -74 39 -119 12 -45 27 -91 35 -103 7 -11 19 -50 26 -86
6 -36 23 -83 35 -106 31 -52 32 -99 2 -115 -29 -16 -664 -8 -694 9 -24 12 -23
14 3 142 9 41 24 91 33 110 10 19 23 62 30 95 7 33 21 79 31 102 11 23 26 71
34 106 8 35 24 84 35 109 11 25 26 77 35 117 8 39 22 85 30 101 8 16 25 70 36
121 20 84 24 92 53 105 41 17 44 17 55 -4z"/>
<path d="M19020 19096 c-64 -18 -144 -76 -195 -141 -35 -45 -47 -72 -63 -143
-20 -85 -21 -115 -22 -1422 -1 -1342 3 -1508 35 -1599 29 -82 109 -168 200
-215 57 -30 66 -31 180 -31 118 0 121 0 180 34 80 46 144 112 186 191 l34 65
3 1479 2 1479 -30 62 c-16 34 -30 66 -30 71 -1 16 -97 108 -145 138 -25 15
-63 32 -83 37 -54 12 -200 10 -252 -5z"/>
</g>
</svg>
